
<svg width="14" height="8" viewBox="0 0 14 8" fill="none" xmlns="http://www.w3.org/2000/svg">
<path d="M13.8353 0.17808C13.7275 0.0639145 13.583 4.97318e-09 13.4324 6.76859e-09C13.2818 8.56401e-09 13.1373 0.0639145 13.0295 0.17808L7 6.55635L0.971662 0.17808C0.863955 0.0639146 0.719368 1.5837e-07 0.568808 1.60165e-07C0.418247 1.61961e-07 0.27366 0.0639147 0.165954 0.17808C0.113433 0.233572 0.0716896 0.29992 0.0431871 0.373207C0.0146837 0.446494 6.26335e-09 0.525234 7.21194e-09 0.604781C8.16053e-09 0.684328 0.0146837 0.763069 0.0431872 0.836356C0.0716896 0.909643 0.113433 0.97599 0.165954 1.03148L6.57905 7.8142C6.69168 7.93333 6.84273 8 7 8C7.15727 8 7.30832 7.93333 7.42095 7.8142L13.834 1.03148C13.8866 0.97599 13.9283 0.909643 13.9568 0.836356C13.9853 0.763069 14 0.684328 14 0.604781C14 0.525234 13.9853 0.446494 13.9568 0.373207C13.9283 0.29992 13.8866 0.233572 13.834 0.17808L13.8353 0.17808Z" fill="white"/>
</svg>
