<svg width="175" height="41" viewBox="0 0 175 41" fill="none" xmlns="http://www.w3.org/2000/svg">
<path d="M0 24.1951V1.70837H7.90922C11.7989 1.70837 14.8688 2.60462 17.1184 4.39711C19.3686 6.18893 20.4934 9.04092 20.4934 12.9517C20.4934 16.8626 19.3686 19.7139 17.1184 21.5064C14.8688 23.2989 11.7989 24.1951 7.90922 24.1951H0ZM7.90922 19.7952C12.0336 19.7952 14.0958 17.5143 14.0958 12.9517C14.0958 8.38923 12.0336 6.10763 7.90922 6.10763H6.15139V19.7952H7.90922ZM33.7315 19.2544C34.4701 18.4979 34.8387 17.2583 34.8387 15.5357C34.8387 13.8131 34.4701 12.5735 33.7315 11.817C32.9936 11.0605 32.0853 10.6822 31.0072 10.6822C29.9298 10.6822 29.0214 11.0605 28.2835 11.817C27.545 12.5735 27.1757 13.8131 27.1757 15.5357C27.1757 17.2583 27.545 18.4979 28.2835 19.2544C29.0214 20.0109 29.9298 20.3891 31.0072 20.3891C32.0853 20.3891 32.9936 20.0109 33.7315 19.2544ZM23.8014 22.449C21.9036 20.936 20.954 18.6315 20.954 15.5357C20.954 12.4391 21.9036 10.1407 23.8014 8.63916C25.6999 7.13758 28.1016 6.38712 31.0072 6.38712C33.9135 6.38712 36.3091 7.13758 38.1961 8.63916C40.0825 10.1407 41.0253 12.4391 41.0253 15.5357C41.0253 18.6315 40.0825 20.936 38.1961 22.449C36.3091 23.962 33.9135 24.7185 31.0072 24.7185C28.1016 24.7185 25.6999 23.962 23.8014 22.449ZM42.2603 24.1951V7.71402C44.3455 6.8292 47.2517 6.38712 50.9777 6.38712C53.0866 6.38712 54.8093 6.80636 56.1451 7.64415C57.9725 6.80636 60.0936 6.38712 62.5068 6.38712C65.085 6.38712 67.1824 6.96894 68.7989 8.13325C70.416 9.2969 71.2242 11.0659 71.2242 13.4402V24.1951H65.2135V13.6498C65.2135 11.6712 64.1591 10.6822 62.0503 10.6822C60.7848 10.6822 59.8359 10.9261 59.2028 11.4152C59.3672 11.9272 59.449 12.5789 59.449 13.3703V24.1951H54.0355V13.6498C54.0355 11.6712 52.9811 10.6822 50.8722 10.6822C49.7941 10.6822 48.9271 10.8448 48.271 11.1707V24.1951H42.2603Z" fill="white"/>
<path d="M73.585 1.7112H83.7789C86.6141 1.7112 88.7054 2.27555 90.0534 3.40425C91.4007 4.53363 92.0743 5.99423 92.0743 7.78671C92.0743 10.2544 90.844 11.8373 88.3835 12.5353C91.3127 13.3503 92.777 15.1193 92.777 17.8429C92.777 19.7516 92.0804 21.2882 90.6858 22.4518C89.2918 23.6161 87.1295 24.1979 84.2003 24.1979H73.585V1.7112ZM83.3217 14.735H79.7364V19.798H83.3217C85.4542 19.798 86.5201 18.9716 86.5201 17.3189C86.5201 15.5963 85.4542 14.735 83.3217 14.735ZM82.8996 6.11045H79.7364V10.6495H82.8996C84.8448 10.6495 85.8174 9.88154 85.8174 8.34502C85.8174 6.85553 84.8448 6.11045 82.8996 6.11045ZM110.849 13.0244V23.4643C108.272 24.3027 105.354 24.7213 102.096 24.7213C99.2842 24.7213 97.1341 24.3377 95.6461 23.5691C94.1581 22.8012 93.4142 21.4279 93.4142 19.4493C93.4142 17.5399 94.0114 16.1606 95.2065 15.3114C96.4023 14.4615 98.4644 14.0369 101.394 14.0369H104.838V13.0244C104.838 12.1631 104.581 11.5578 104.065 11.2084C103.549 10.8591 102.788 10.6851 101.78 10.6851C99.577 10.6851 97.3627 11.0687 95.1368 11.8373L94.4334 7.54216C97.0346 6.77424 99.577 6.38994 102.061 6.38994C107.92 6.38994 110.849 8.60167 110.849 13.0244ZM104.838 20.8105V17.1093H102.694C100.632 17.1093 99.6007 17.7845 99.6007 19.1349C99.6007 19.7631 99.8645 20.2522 100.391 20.6015C100.919 20.9502 101.616 21.1249 102.483 21.1249C103.256 21.1249 104.042 21.0201 104.838 20.8105ZM112.541 24.1979V7.71684C113.384 7.32112 114.486 7.00065 115.845 6.75677C117.204 6.51222 118.469 6.38994 119.641 6.38994C121.586 6.38994 123.074 6.54111 124.105 6.84411L123.367 11.1386C122.875 10.8826 122.09 10.7549 121.012 10.7549C119.934 10.7549 119.114 10.8826 118.551 11.1386V24.1979H112.541ZM124.707 23.4643V0H130.717V6.98318C131.632 6.65734 132.733 6.49475 134.022 6.49475C136.834 6.49475 139.043 7.24521 140.648 8.74679C142.253 10.2484 143.056 12.489 143.056 15.4686C143.056 21.6375 139.517 24.7213 132.44 24.7213C129.581 24.7213 127.004 24.3027 124.707 23.4643ZM136.87 15.6433C136.87 13.9435 136.465 12.7161 135.656 11.9596C134.848 11.2024 133.858 10.8241 132.686 10.8241C131.89 10.8241 131.234 10.9525 130.717 11.2084V20.0775C131.21 20.2871 131.842 20.3919 132.616 20.3919C135.451 20.3919 136.87 18.809 136.87 15.6433ZM162.041 14.9446C162.041 15.6433 161.948 16.3414 161.761 17.0394H149.985C149.985 18.2037 150.359 19.0536 151.109 19.5884C151.859 20.1239 153.031 20.3919 154.624 20.3919C157.132 20.3919 159.112 20.101 160.565 19.5185L161.725 23.639C159.734 24.3605 157.355 24.7213 154.589 24.7213C147.231 24.7213 143.552 21.6604 143.552 15.5385C143.552 12.3956 144.372 10.0851 146.012 8.60704C147.653 7.12898 149.938 6.38994 152.867 6.38994C155.773 6.38994 158.028 7.08799 159.633 8.48476C161.239 9.88154 162.041 12.0348 162.041 14.9446ZM149.985 13.5129L150.301 13.967H155.609C155.609 12.6865 155.392 11.7728 154.958 11.2259C154.525 10.679 153.828 10.4056 152.867 10.4056C150.946 10.4056 149.985 11.4416 149.985 13.5129ZM163.347 24.1979V7.71684C164.19 7.32112 165.291 7.00065 166.651 6.75677C168.01 6.51222 169.275 6.38994 170.447 6.38994C172.392 6.38994 173.88 6.54111 174.911 6.84411L174.173 11.1386C173.68 10.8826 172.896 10.7549 171.818 10.7549C170.74 10.7549 169.919 10.8826 169.357 11.1386V24.1979H163.347Z" fill="#FF9933"/>
<path fill-rule="evenodd" clip-rule="evenodd" d="M59.6303 35.954L59.6682 35.8868V35.8862L59.702 35.819L59.7318 35.7525L59.7575 35.6873V35.6866L59.7784 35.6221V35.6215L59.7954 35.5583V35.5576L59.8082 35.4951L59.817 35.4333V35.4327L59.8224 35.3722C59.8238 35.352 59.8244 35.3319 59.8244 35.3124V35.3117L59.8224 35.254V35.2533L59.817 35.1962V35.1955L59.8089 35.1397V35.1391L59.7967 35.084V35.0833L59.7818 35.0302V35.0296L59.7642 34.9772V34.9765L59.7439 34.9254V34.9247L59.7203 34.8757V34.875L59.6939 34.8267C59.3557 34.2321 58.4352 33.9573 57.8542 34.2952L57.7095 34.3772L57.5634 34.4565L57.4153 34.5317L57.2665 34.6043L57.2286 34.6217L57.2259 34.6231L57.2218 34.6251L57.2191 34.6258L57.2171 34.6271L57.2144 34.6285L57.2124 34.6291L57.2097 34.6305L57.2076 34.6311L57.2056 34.6325L57.2029 34.6338L57.2009 34.6345L57.1982 34.6359L57.1961 34.6365L57.1934 34.6379L57.1914 34.6392L57.1887 34.6399L57.1867 34.6412L57.184 34.6426L57.1819 34.6432L57.1792 34.6446L57.1772 34.6453L57.1745 34.6466L57.1725 34.6479L57.1698 34.6486L57.1677 34.65L57.165 34.6506L57.163 34.652L57.1603 34.6533L57.1583 34.654L57.1556 34.6553L57.1535 34.656L57.1508 34.6574L57.1488 34.6587L57.1461 34.6594L57.1441 34.6607L57.142 34.6614L57.1393 34.6627L57.1366 34.6641L57.1346 34.6647L57.1157 34.6735L56.9635 34.7393L56.81 34.8025L56.6544 34.8616L56.4982 34.918L56.3406 34.9711C56.2878 34.9879 56.2351 35.0047 56.1816 35.0208L56.0213 35.0672L55.8604 35.1108L55.8448 35.1142L55.8421 35.1156L55.8374 35.1162L55.8347 35.1169L55.8319 35.1176L55.8299 35.1182L55.8272 35.1189L55.8245 35.1196L55.8225 35.1203L55.8198 35.1209L55.8171 35.1216L55.8144 35.1223L55.8123 35.1229L55.8096 35.1236L55.8069 35.1243H55.8042L55.8022 35.125L55.7995 35.1263H55.7968L55.7941 35.127L55.792 35.1276L55.7893 35.1283L55.7866 35.129L55.7839 35.1297L55.7819 35.1303L55.7792 35.131L55.7765 35.1317L55.7738 35.1323L55.7711 35.133H55.7691L55.7663 35.1337L55.7636 35.1344L55.7609 35.135L55.7589 35.1357L55.7562 35.1364L55.7535 35.1371L55.7508 35.1377L55.7481 35.1384L55.7461 35.1391H55.7433L55.7406 35.1397L55.7386 35.1404L55.7285 35.1431L55.7258 35.1438L55.6974 35.1505L55.5337 35.1868L55.3693 35.2204H55.3687C55.3139 35.2304 55.2584 35.2412 55.2029 35.2506L55.0366 35.2775H55.0359L54.8682 35.3003L54.6997 35.3205H54.6991L54.53 35.3373L54.3595 35.3507H54.3589L54.1877 35.3608L54.0153 35.3675L53.8421 35.3702H53.6683L53.4938 35.3668L53.3186 35.3601L53.1428 35.3494L52.9663 35.3359L52.7897 35.3185H52.7891L52.6119 35.2983L52.434 35.2741L52.409 35.2707L52.4062 35.2701L52.4035 35.2694H52.4008L52.3975 35.2687H52.3947L52.392 35.2681L52.3893 35.2674H52.3866L52.3839 35.2667H52.3812L52.3778 35.266L52.3751 35.2654H52.3724L52.3697 35.2647L52.367 35.264H52.3643L52.3616 35.2634L52.3589 35.2627H52.3562L52.3535 35.262L52.3501 35.2613H52.3474L52.3447 35.2607L52.342 35.26H52.3393L52.3366 35.2593H52.3339L52.3305 35.2587L52.3285 35.258H52.3251L52.3224 35.2573L52.3197 35.2566H52.317L52.3143 35.256L52.3116 35.2553H52.3089L52.3061 35.2546L52.3028 35.254H52.3001L52.2974 35.2533L52.2946 35.2526H52.2919L52.2831 35.2513L52.2811 35.2506L52.2777 35.2499H52.275L52.2554 35.2466L52.0769 35.2157L51.8976 35.1814L51.7177 35.1431L51.5378 35.1021L51.3579 35.0571L51.1773 35.0087L50.9974 34.957H50.9967L50.8162 34.9019L50.6356 34.8428H50.6349L50.4543 34.7803C50.3934 34.7588 50.3339 34.7373 50.2737 34.7145H50.273L50.2446 34.7037L50.2419 34.703L50.2392 34.7017L50.2365 34.7004L50.2338 34.6997L50.2311 34.6983L50.2277 34.6977L50.225 34.6963L50.2223 34.695L50.2196 34.6943L50.2169 34.693L50.2135 34.6923L50.2108 34.6909L50.2081 34.6896L50.2054 34.6889L50.2027 34.6876L50.2 34.6869L50.1966 34.6856L50.1939 34.6842L50.1912 34.6836L50.1885 34.6822L50.1858 34.6815L50.1831 34.6802L50.1797 34.6789L50.177 34.6782L50.1743 34.6768L50.1716 34.6762L50.1689 34.6748L50.1655 34.6735L50.1628 34.6728L50.1601 34.6715L50.1574 34.6708L50.1547 34.6694L50.152 34.6681L50.1486 34.6674L50.1459 34.6661L50.1432 34.6647L50.1405 34.6641L50.1378 34.6627L50.1344 34.6614L50.1317 34.6607L50.129 34.6594L50.1263 34.6587L50.1236 34.6574L50.1209 34.656L50.1175 34.6553L50.0925 34.6453H50.0918L50.0471 34.6278V34.6271L50.0302 34.6204L50.0268 34.6197V34.6191L50.0072 34.6117L50.0045 34.6103L50.0018 34.609L49.9991 34.6083V34.6076L49.9734 34.5976L49.9707 34.5969V34.5962L49.968 34.5955L49.9653 34.5942L49.9626 34.5929L49.9592 34.5922V34.5915L49.9565 34.5908V34.5902L49.9538 34.5895L49.9112 34.572L49.7306 34.4954H49.7299L49.5493 34.4148L49.3688 34.3315H49.3681L49.1882 34.2442L49.0076 34.1528L48.8277 34.0587H48.827L48.6478 33.9606H48.6471C48.5869 33.9271 48.5274 33.8935 48.4679 33.8585L48.451 33.8491L48.4483 33.8478L48.4455 33.8458L48.4428 33.8444L48.4395 33.8424L48.4368 33.8411L48.434 33.839L48.4313 33.8377L48.4286 33.8364L48.4259 33.8343L48.4232 33.833L48.4205 33.831L48.4171 33.8296L48.4144 33.8276L48.4117 33.8263L48.409 33.8243L48.4063 33.8229L48.4036 33.8216L48.4002 33.8196L48.3975 33.8182L48.3948 33.8162L48.3921 33.8149L48.3894 33.8128L48.3867 33.8115L48.384 33.8102L48.3806 33.8081L48.3779 33.8068L48.3698 33.8014L48.3671 33.8001L48.3644 33.7981L48.3617 33.7967L48.3583 33.7947L48.3556 33.7934L48.3529 33.7913L48.3502 33.79L48.3475 33.7887L48.3448 33.7866L48.3421 33.7853L48.3387 33.7833L48.336 33.7813L48.3333 33.7799L48.3306 33.7786L48.3279 33.7766L48.3252 33.7752L48.3225 33.7732L48.3197 33.7719L48.3164 33.7698L48.3137 33.7685L48.3055 33.7631L48.3028 33.7618L48.3001 33.7598L48.2968 33.7584L48.2886 33.753L48.1101 33.6442H48.1094L47.9315 33.5313H47.9308L47.7536 33.4151H47.753L47.5758 33.2955L47.3986 33.1719L47.222 33.0442L47.0462 32.9132L47.0347 32.9052L47.0327 32.9032L47.0293 32.9011L47.0266 32.8991L47.0239 32.8971L47.0212 32.8944L47.0185 32.8924L47.0157 32.8904L47.013 32.8884L47.0103 32.8864L47.0076 32.8843L47.0049 32.8823L47.0022 32.8803L46.9995 32.8783L46.9968 32.8763L46.9941 32.8736L46.9914 32.8716L46.988 32.8696L46.986 32.8676L46.9826 32.8655L46.9806 32.8635L46.9772 32.8615L46.9745 32.8588L46.9718 32.8568L46.9691 32.8548L46.9664 32.8528L46.9637 32.8508L46.961 32.8487L46.9583 32.8467L46.9556 32.844L46.9529 32.842L46.9501 32.84L46.9474 32.838L46.9447 32.836L46.942 32.834L46.9393 32.8319L46.9366 32.8299L46.9339 32.8279L46.9312 32.8252L46.9285 32.8232L46.9258 32.8212L46.9231 32.8192L46.9204 32.8165L46.9177 32.8145L46.915 32.8125L46.9123 32.8104L46.9096 32.8084L46.9069 32.8064L46.9041 32.8044L46.9008 32.8024L46.8987 32.7997L46.8954 32.7977L46.8933 32.7957L46.8899 32.7936L46.8872 32.7916L46.871 32.7789L46.5856 32.5525L46.5849 32.5518L46.3096 32.3287H46.309V32.3281L46.0432 32.1077L46.0418 32.1063H46.0411L45.7861 31.888H45.7855L45.7841 31.886H45.7834L45.5373 31.671L45.5352 31.6696L45.2978 31.458L45.1301 31.3048L45.0665 31.2457L45.0625 31.243L44.8426 31.0381L44.8393 31.0341H44.8386L44.6269 30.8325L44.6235 30.8278L44.4172 30.6303L44.4132 30.6256L44.2163 30.4308H44.2157L44.2116 30.4261L44.0202 30.2346H44.0195L44.0148 30.2285H44.0141L43.8301 30.0418H43.8295L43.8247 30.0364H43.8241L43.6462 29.853L43.6408 29.8476H43.6401L43.4676 29.6675L43.4615 29.6615L43.2938 29.4848L43.2884 29.4788H43.2877L43.1247 29.3068L43.1186 29.3L42.9597 29.1321L42.9543 29.1254L42.7994 28.9621H42.7987L42.7926 28.9554L42.6432 28.7962H42.6425L42.635 28.7881L42.4876 28.6329L42.4802 28.6255L42.3374 28.4757H42.3368L42.33 28.4676L42.3036 28.4414L42.1805 28.3138L42.0426 28.1727L42.0338 28.1646L41.8971 28.0276L41.889 28.0202L41.7538 27.8878L41.7463 27.8798H41.7456L41.6117 27.7528L41.6029 27.7447L41.4697 27.6218L41.4609 27.6144L41.4244 27.5821L41.3297 27.4975L41.3209 27.4901L41.1883 27.3772L41.1789 27.3698L41.1477 27.345H41.1471L41.0382 27.2549H41.0375L40.9049 27.1528C40.4741 26.8411 39.9736 26.5918 39.4434 26.401C38.5912 26.0812 37.6713 25.9301 36.7332 25.9301C34.9429 25.9301 33.3934 26.6026 32.6427 27.5808L32.6346 27.5895L32.6149 27.6117L32.6034 27.6258L32.5974 27.6325L32.575 27.6607L32.5723 27.6641L32.5615 27.6775L32.5412 27.7044L32.5351 27.7131L32.5115 27.7461L32.5087 27.7494L32.4837 27.787L32.4817 27.7897L32.458 27.826L32.4526 27.8347L32.4506 27.8381L32.4492 27.8408L32.4452 27.8468L32.4438 27.8495L32.4398 27.8549V27.8556L32.4384 27.8583L32.431 27.8703L32.4289 27.873L32.4256 27.8784V27.8791L32.4235 27.8811L32.4222 27.8851L32.4201 27.8878L32.4181 27.8905L32.4168 27.8932L32.4147 27.8966L32.4134 27.8992V27.8999L32.4114 27.9026L32.4093 27.9053L32.408 27.9086L32.4059 27.9113L32.4039 27.9147L32.4026 27.9174L32.4005 27.9207L32.3992 27.9234L32.3972 27.9268L32.3958 27.9295L32.3843 27.9483V27.949L32.3674 27.9785V27.9792L32.3606 27.9913L32.3403 28.0289V28.0296L32.337 28.035V28.0356L32.3133 28.0793V28.08V28.0806L32.2903 28.125L32.2862 28.133V28.1337L32.2856 28.1357V28.1364L32.2842 28.1384L32.2829 28.1404V28.1411L32.2801 28.1458L32.2795 28.1478L32.2768 28.1532L32.2754 28.1559L32.2727 28.1613L32.2714 28.1633L32.268 28.1707V28.1713L32.2666 28.1734L32.2632 28.1807V28.1814L32.2619 28.1834L32.2571 28.1935L32.2558 28.1955V28.1962L32.2497 28.2083V28.209L32.2484 28.211V28.2116L32.2402 28.2291L32.2389 28.2311V28.2318L32.2375 28.2338L32.2152 28.2829V28.2835L32.2139 28.2856L32.2125 28.2882L32.2112 28.2909L32.2105 28.2929V28.2936L32.2091 28.2956V28.2963L32.2017 28.3124L32.1841 28.3514L32.1591 28.4072L32.1584 28.4085V28.4092L32.1374 28.4569V28.4575L32.1354 28.4636V28.4643L32.1171 28.5066L32.1111 28.5207V28.5214L32.0969 28.5556L32.0881 28.5778L32.0766 28.6047V28.6054L32.0644 28.6349V28.6356L31.9988 28.8022V28.8029L31.9974 28.8062V28.8069L31.9433 28.9487V28.9493L31.9332 28.9755V28.9762L31.9251 28.997L31.9122 29.0313V29.032L31.9068 29.0447L31.8723 29.1388L31.8716 29.1401V29.1408L31.8554 29.1845V29.1852L31.8047 29.3189V29.3195L31.7938 29.3477V29.3484L31.7884 29.3618V29.3625L31.7756 29.3968V29.3975L31.7729 29.4042V29.4048L31.7411 29.4855V29.4861L31.7391 29.4915V29.4922L31.7255 29.5244V29.5251L31.7208 29.5365L31.71 29.5627L31.6951 29.599V29.5997L31.6856 29.6212V29.6219L31.6802 29.6346V29.6353L31.6687 29.6615V29.6622L31.6653 29.6689V29.6696L31.6221 29.7623V29.7629L31.6187 29.7697V29.7703L31.6085 29.7905V29.7912L31.6024 29.8019V29.8026L31.5943 29.8174V29.818L31.5869 29.8315V29.8321L31.5808 29.8422L31.5774 29.8476L31.5673 29.8651L31.5551 29.8839L31.5537 29.8866L31.5402 29.9054L31.5395 29.906L31.5274 29.9228L31.5247 29.9262L31.5145 29.9383L31.5098 29.9437L31.5017 29.9517L31.499 29.9537L31.4902 29.9611L31.4868 29.9638L31.478 29.9705L31.4672 29.9766L31.4651 29.9773L31.4509 29.9826L31.4367 29.9773L31.4354 29.9766L31.4246 29.9705L31.4158 29.9638L31.4124 29.9611L31.4036 29.9537L31.4009 29.9517L31.3928 29.9437L31.388 29.9383L31.3779 29.9262L31.3752 29.9228L31.3623 29.906L31.3617 29.9054L31.3488 29.8866L31.3468 29.8839L31.3353 29.8651L31.3251 29.8476L31.3218 29.8422L31.3157 29.8321V29.8315L31.3082 29.818V29.8174L31.2994 29.8026V29.8019L31.294 29.7912V29.7905L31.2832 29.7703V29.7697L31.2798 29.7629V29.7623L31.2365 29.6696V29.6689L31.2338 29.6622V29.6615L31.2223 29.6353V29.6346L31.2162 29.6219V29.6212L31.2075 29.5997V29.599L31.1919 29.5627L31.1811 29.5365L31.177 29.5251V29.5244L31.1635 29.4922V29.4915L31.1615 29.4861V29.4855L31.1297 29.4048V29.4042L31.127 29.3975V29.3968L31.1134 29.3625V29.3618L31.108 29.3484V29.3477L31.0972 29.3195V29.3189L31.0472 29.1852V29.1845L31.0303 29.1408V29.1401V29.1388L30.9951 29.0447L30.9903 29.032V29.0313L30.9775 28.997L30.9694 28.9762V28.9755L30.9592 28.9493V28.9487L30.9051 28.8069V28.8062L30.9038 28.8029V28.8022L30.8375 28.6356V28.6349L30.8253 28.6054V28.6047L30.8145 28.5778L30.8057 28.5556L30.7908 28.5214V28.5207L30.7854 28.5066L30.7672 28.4643V28.4636L30.7644 28.4575V28.4569L30.7435 28.4092V28.4085L30.7428 28.4072L30.7185 28.3514L30.7009 28.3124L30.6934 28.2963V28.2956L30.6921 28.2936V28.2929L30.6907 28.2909L30.6901 28.2882L30.6887 28.2856L30.6873 28.2835V28.2829L30.686 28.2802L30.6853 28.2782V28.2775L30.684 28.2755V28.2748L30.6826 28.2728L30.6813 28.2701L30.6806 28.2674L30.6792 28.2654V28.2647L30.6779 28.2627V28.262L30.6765 28.26L30.6752 28.2573L30.6745 28.2546L30.6731 28.252L30.6718 28.2499V28.2493L30.6704 28.2473V28.2466L30.6698 28.2446V28.2439L30.6684 28.2419L30.6671 28.2392L30.6657 28.2365L30.6643 28.2345V28.2338L30.6637 28.2318V28.2311L30.6623 28.2291L30.661 28.2264L30.6596 28.2244V28.2237L30.6589 28.2217V28.2211L30.6576 28.219L30.6562 28.2164L30.6549 28.2137L30.6535 28.2116V28.211L30.6528 28.209V28.2083L30.6515 28.2063L30.6501 28.2036L30.6488 28.2009L30.6474 28.1989V28.1982L30.6468 28.1962V28.1955L30.6454 28.1935L30.6441 28.1908L30.6427 28.1888V28.1881L30.642 28.1861V28.1854L30.6407 28.1834L30.6393 28.1814V28.1807L30.638 28.1787V28.1781L30.6366 28.176L30.6353 28.1734L30.6339 28.1713V28.1707L30.6332 28.1686V28.168L30.6319 28.166L30.6305 28.1633L30.6299 28.1613V28.1606L30.6278 28.1586V28.1579L30.6271 28.1559L30.6258 28.1532L30.6244 28.1512V28.1505L30.6231 28.1485V28.1478L30.6217 28.1458L30.6211 28.1438V28.1431L30.6197 28.1411V28.1404L30.6184 28.1384L30.617 28.1364V28.1357L30.6157 28.1337V28.133L30.6116 28.125L30.5893 28.0806L30.5886 28.08V28.0793L30.5656 28.0356V28.035L30.5622 28.0296V28.0289L30.5419 27.9913L30.5352 27.9792V27.9785L30.5176 27.949V27.9483L30.5068 27.9295L30.5054 27.9268L30.5034 27.9234L30.5013 27.9207L30.4959 27.9113L30.4946 27.9086L30.4926 27.9053L30.4912 27.9026L30.4858 27.8932L30.4838 27.8905L30.4499 27.8347L30.4439 27.826L30.4209 27.7897L30.4188 27.787L30.3931 27.7494L30.3911 27.7461L30.3674 27.7131L30.3607 27.7044L30.3411 27.6775L30.3302 27.6641L30.3275 27.6607L30.3045 27.6325L30.2991 27.6258L30.2876 27.6117L30.2673 27.5895L30.2599 27.5808C29.5091 26.6026 27.9596 25.9301 26.1687 25.9301C26.0936 25.9301 26.0178 25.9314 25.9407 25.9341H25.9238L25.9069 25.9348C25.0831 25.9603 24.2769 26.1034 23.5228 26.3782L23.4876 26.3903C22.9465 26.5824 22.4359 26.835 21.9976 27.1521L21.8644 27.2549L21.7548 27.345L21.7237 27.3692L21.7142 27.3765L21.5817 27.4894L21.5729 27.4968L21.4417 27.6144L21.4329 27.6218L21.2996 27.7447L21.2908 27.7528L21.1562 27.8798L21.1488 27.8878L21.0135 28.0202L21.0054 28.0276H21.0047L20.8688 28.1646H20.8681L20.86 28.1727L20.722 28.3138L20.5989 28.4414L20.5726 28.4676L20.5651 28.4757L20.4217 28.6255L20.415 28.6329H20.4143L20.2675 28.7881H20.2668L20.2601 28.7962H20.2594L20.1099 28.9554L20.1032 28.9621L19.9483 29.1254L19.9429 29.1321L19.7839 29.3H19.7833L19.7778 29.3068L19.6142 29.4788L19.6088 29.4848H19.6081L19.4403 29.6615L19.4349 29.6675H19.4343L19.2625 29.8476H19.2618L19.2564 29.853H19.2557L19.0778 30.0364L19.0724 30.0418L18.8878 30.2285L18.8824 30.2346L18.691 30.4261L18.6869 30.4308H18.6862L18.4894 30.6256L18.4853 30.6303H18.4847L18.2791 30.8278L18.2757 30.8325L18.0633 31.0341L18.0599 31.0381L17.8394 31.243L17.836 31.2457L17.7725 31.3048L17.6047 31.458H17.6041L17.3673 31.6696H17.3667L17.3653 31.671H17.3646L17.1191 31.886H17.1184L17.1164 31.888L16.8608 32.1063L16.8594 32.1077L16.5936 32.3281L16.5929 32.3287L16.3176 32.5518L16.3163 32.5525L16.0316 32.7789L15.8564 32.9132H15.8557L15.6805 33.0442H15.6798L15.504 33.1719L15.3268 33.2955L15.1496 33.4151H15.1489L14.971 33.5313L14.7925 33.6442L14.6139 33.753H14.6132L14.4347 33.8585H14.434C14.3745 33.8935 14.315 33.9271 14.2548 33.9606L14.2379 33.9701L14.2352 33.9714L14.2298 33.9748L14.2271 33.9761L14.2243 33.9774L14.221 33.9795L14.2183 33.9808L14.2156 33.9821L14.2128 33.9842L14.2101 33.9855L14.2074 33.9868L14.2047 33.9889L14.2014 33.9902L14.1986 33.9916L14.1959 33.9936L14.1932 33.9949L14.1905 33.9963L14.1878 33.9976L14.1844 33.9996L14.1817 34.001L14.179 34.0023L14.1763 34.0043L14.1736 34.0057L14.1709 34.007L14.1682 34.0083L14.1648 34.0104L14.1621 34.0117L14.1594 34.0131L14.1567 34.0144L14.154 34.0164L14.1513 34.0178L14.1479 34.0191L14.1452 34.0204L14.1425 34.0225L14.1398 34.0238L14.1371 34.0251L14.1344 34.0265L14.1317 34.0285L14.1283 34.0298L14.1256 34.0312L14.1229 34.0325L14.1202 34.0345L14.1175 34.0359L14.1148 34.0372L14.1114 34.0386L14.1087 34.0406L14.106 34.0419L14.1033 34.0433L14.1006 34.0453L14.0979 34.0466L14.0952 34.048L14.0749 34.0587L13.895 34.1528H13.8943L13.7144 34.2442L13.5338 34.3315L13.3532 34.4148H13.3525L13.1719 34.4954L12.9914 34.572H12.9907C12.9305 34.5969 12.8703 34.6211 12.8101 34.6453L12.6288 34.7145C12.5686 34.7373 12.5085 34.7588 12.4483 34.7803H12.4476L12.267 34.8428L12.0864 34.9019L11.9051 34.957L11.7252 35.0087H11.7246L11.5447 35.0571L11.5332 35.0605L11.5305 35.0611L11.5277 35.0618L11.5244 35.0625L11.5217 35.0631L11.519 35.0638L11.5162 35.0645L11.5135 35.0652L11.5108 35.0658L11.5081 35.0665L11.5054 35.0672L11.502 35.0679L11.4993 35.0692L11.4966 35.0699L11.4939 35.0705L11.4912 35.0712L11.4878 35.0719L11.4851 35.0726L11.4824 35.0732L11.4797 35.0739L11.477 35.0746L11.4743 35.0752L11.4716 35.0759L11.4689 35.0766L11.4655 35.0773L11.4628 35.0779L11.4601 35.0786L11.4574 35.0793L11.4547 35.0799L11.4513 35.0806L11.4486 35.0813L11.4459 35.082L11.4432 35.0833H11.4405L11.4378 35.0846H11.4344L11.4324 35.0853L11.429 35.086L11.4263 35.0867L11.4236 35.0873L11.4209 35.0887L11.4182 35.0893L11.4148 35.09L11.4121 35.0907L11.4094 35.0914L11.4067 35.092L11.404 35.0927L11.4013 35.0934L11.3898 35.0961L11.3871 35.0967L11.3844 35.0974L11.3817 35.0981L11.3783 35.0988L11.3756 35.0994L11.3647 35.1021H11.3641L11.1848 35.1431H11.1842L11.0049 35.1814L10.8257 35.2157L10.6471 35.2466H10.6465L10.4686 35.2741H10.4679L10.2907 35.2983L10.1128 35.3185L9.93562 35.3359L9.75977 35.3494H9.75909L9.58392 35.3601L9.55619 35.3614H9.55349H9.55078H9.54807L9.54537 35.3621H9.54266H9.53996H9.53725H9.53455L9.53184 35.3628H9.52914H9.52643H9.52373H9.52102H9.51764L9.51561 35.3635H9.51223H9.5102H9.50682H9.50411H9.50141H9.4987L9.496 35.3641H9.49329H9.49059H9.48788H9.48517H9.48247H9.47976L9.47706 35.3648H9.47435H9.47165H9.46894H9.46624H9.46353H9.46083L9.45812 35.3655H9.45474H9.45271H9.44933H9.4473L9.4358 35.3661H9.4331L9.40875 35.3668H9.40807L9.23425 35.3702H9.23357H9.06043H9.05975L8.88728 35.3675L8.71481 35.3608L8.5437 35.3507H8.54302L8.52476 35.3494H8.52138L8.51935 35.3487H8.51123L8.50853 35.348H8.50582H8.50312L8.50041 35.3473H8.49771H8.495H8.49229L8.48959 35.3467H8.48688H8.48418H8.48147L8.47877 35.346H8.47674H8.47336L8.47133 35.3453H8.46862L8.46592 35.3447H8.46321H8.46051H8.4578L8.45509 35.344H8.45239H8.44968L8.44698 35.3433H8.44427H8.44157L8.43886 35.3426H8.43616H8.43413H8.43142L8.42872 35.342H8.42601H8.42331L8.4206 35.3413H8.4179H8.41519L8.41248 35.3406H8.40978H8.40707L8.40437 35.34H8.40166L8.39896 35.3393L8.37258 35.3373L8.20282 35.3205L8.03441 35.3003H8.03373L7.866 35.2775L7.69961 35.2506H7.69894C7.64348 35.2412 7.58869 35.2304 7.53323 35.2204L7.36888 35.1868H7.3682L7.2052 35.1505H7.20453L7.0422 35.1108L6.88123 35.0672H6.88056L6.72094 35.0208H6.72026C6.66751 35.0047 6.61475 34.9879 6.562 34.9711H6.56132L6.40373 34.918L6.24749 34.8616L6.09261 34.8025L6.07097 34.7937L6.06826 34.7924L6.06556 34.7917L6.06353 34.791L6.0615 34.7897L6.05879 34.7884L6.05609 34.7877L6.05406 34.787L6.05135 34.7857L6.04932 34.785L6.04662 34.7837L6.04391 34.783L6.04188 34.7816L6.03918 34.781L6.03715 34.7803L6.03444 34.779L6.03242 34.7776L6.02971 34.7769L6.02768 34.7763L6.02498 34.7749L6.02227 34.7743L6.02024 34.7729L6.01754 34.7722L6.01551 34.7709L6.0128 34.7702L6.01077 34.7695L6.00807 34.7682L6.00604 34.7669L6.00333 34.7662L6.0013 34.7655L5.9986 34.7642L5.99589 34.7628L5.99386 34.7622L5.99116 34.7615L5.98913 34.7601L5.98642 34.7595L5.98439 34.7581L5.98169 34.7575L5.97966 34.7561L5.97695 34.7554L5.97493 34.7541L5.97222 34.7534L5.96478 34.7501L5.96275 34.7494L5.93908 34.7393L5.7869 34.6735L5.63608 34.6043L5.4866 34.5317L5.33916 34.4565L5.19307 34.3772L5.04833 34.2952C4.4687 33.9573 3.54683 34.2321 3.20798 34.8267L3.18228 34.875V34.8757L3.15861 34.9247V34.9254L3.13764 34.9765V34.9772C3.13156 34.9946 3.12547 35.0121 3.12006 35.0296V35.0302L3.10518 35.0833V35.084L3.09368 35.1391V35.1397L3.08489 35.1955V35.1962L3.07948 35.2533V35.254L3.07812 35.3117V35.3124C3.07812 35.3319 3.07813 35.352 3.07948 35.3722L3.08489 35.4327V35.4333L3.09436 35.4951C3.09774 35.516 3.10247 35.5368 3.10721 35.5576V35.5583L3.12412 35.6215V35.6221C3.1302 35.6436 3.13764 35.6651 3.14508 35.6866V35.6873L3.17011 35.7525C3.17958 35.7746 3.18972 35.7968 3.19987 35.819L3.23369 35.8862V35.8868L3.27224 35.954C3.38113 36.1368 3.53872 36.3276 3.75583 36.5231L3.87622 36.6312L3.99796 36.7387L4.12105 36.8456L4.24483 36.951L4.36995 37.0558L4.49575 37.1593L4.6229 37.2628L4.75073 37.3642L4.88059 37.4657L5.01045 37.5658L5.14166 37.6645L5.27423 37.7626L5.40747 37.8594L5.54206 37.9555L5.67801 38.0502L5.81463 38.1436L5.95261 38.2363L6.09126 38.3277L6.23126 38.4177L6.37194 38.507L6.51465 38.5944L6.65804 38.681L6.8021 38.7664H6.80278L6.94819 38.8504L7.09496 38.933L7.2424 39.0143L7.3912 39.0942L7.54202 39.1728L7.69285 39.2501L7.84571 39.3253L7.99924 39.3999L8.15412 39.4725L8.30968 39.5444L8.46659 39.6142L8.62486 39.6821L8.78448 39.7493L8.94545 39.8145L9.10709 39.8783L9.27009 39.9401L9.43445 40.0006L9.60015 40.059L9.76653 40.1161L9.93427 40.1719L10.1034 40.2256L10.2738 40.2774L10.4449 40.3277H10.4456L10.6181 40.3754L10.7919 40.4225L10.9671 40.4675L11.1436 40.5098L11.3215 40.5508L11.5 40.5898H11.5007L11.6806 40.6274L11.8619 40.6623L12.0445 40.6959L12.2284 40.7275H12.2291L12.4138 40.7564L12.6004 40.7839L12.7885 40.8095L12.9772 40.8323L13.1679 40.8538L13.3593 40.8726H13.36L13.5527 40.8894L13.7468 40.9042L13.9254 40.9163H13.9261L14.1046 40.927H14.1053L14.2845 40.9358H14.2852L14.4651 40.9438L14.6457 40.9505H14.6464L14.8277 40.9559L15.0096 40.96L15.1915 40.9626H15.1922L15.3741 40.9633H15.3748L15.5574 40.964L15.7407 40.9626L15.924 40.96H15.9247L16.108 40.9566L16.2919 40.9512L16.4759 40.9452H16.4766L16.6606 40.9378L16.8445 40.929L17.0285 40.919H17.0292L17.2131 40.9076L17.3971 40.8955H17.3978L17.5817 40.8813L17.7657 40.8666L17.9497 40.8504L18.133 40.8336H18.1336L18.3163 40.8148H18.3169L18.4995 40.7953L18.6828 40.7745L18.8648 40.753H18.8654L19.0474 40.7302L19.2286 40.706L19.4099 40.6805H19.4106L19.5905 40.6543H19.5912L19.7711 40.6267L19.9503 40.5978H19.951L20.1295 40.5683L20.3081 40.5374L20.4853 40.5058L20.6625 40.4729L20.8384 40.4386L21.0135 40.4037H21.0142L21.188 40.3674L21.3619 40.3304L21.5343 40.2921H21.535L21.7061 40.2525L21.8772 40.2122L22.0463 40.1712H22.047L22.2154 40.1289L22.3831 40.0859L22.5488 40.0415H22.5495L22.7139 39.9959H22.7145L22.8782 39.9502L23.0405 39.9025H23.0412L23.2022 39.8548L23.3625 39.8057L23.5208 39.7553H23.5214L23.6783 39.7043L23.8339 39.6525L23.9881 39.6001H23.9888L24.141 39.5457L24.2925 39.4913L24.4419 39.4355H24.4426L24.5901 39.3791L24.7362 39.322L24.8809 39.2642L25.0209 39.2071L25.0229 39.2058L25.1575 39.15L25.2894 39.0936L25.4186 39.0378L25.5457 38.9827L25.6695 38.9269L25.7913 38.8719L25.9103 38.8161L26.0273 38.7617L26.1416 38.7066L26.2539 38.6515L26.3634 38.5971L26.4717 38.542L26.5772 38.4876L26.6807 38.4331H26.6813L26.7828 38.3787L26.8822 38.3243L26.9803 38.2699L27.0763 38.2155L27.1703 38.161L27.263 38.1066L27.3543 38.0522L27.4436 37.9978L27.5315 37.9434L27.6174 37.8889L27.7019 37.8345H27.7026L27.7858 37.7794L27.8676 37.725L27.9488 37.6699L28.0286 37.6148L28.1071 37.5604L28.1842 37.5046L28.2606 37.4495L28.3357 37.3945L28.4101 37.3387L28.4838 37.2829L28.5562 37.2272L28.6279 37.1707L28.6989 37.1143L28.7692 37.0579H28.7699L28.8389 37.0014H28.8396L28.9085 36.9443L28.9775 36.8872L29.0458 36.8294L29.1135 36.7717L29.1811 36.7139L29.2488 36.6554L29.315 36.597H29.3157L29.382 36.5379H29.3827L29.4489 36.4787H29.4496L29.5159 36.4189L29.5822 36.3598H29.5829L29.6491 36.2993H29.6498L29.7161 36.2389L29.7831 36.1777L29.85 36.1159H29.8507L29.9177 36.0548H29.9183L29.9853 35.9923H29.986L30.0536 35.9298L30.1219 35.8673H30.1226L30.1916 35.8035L30.2612 35.7397L30.3309 35.6752H30.3316L30.4019 35.6107L30.4736 35.5455L30.4919 35.5287L30.5101 35.5126L30.5277 35.4965H30.5284L30.546 35.4804L30.5636 35.4649H30.5642L30.5812 35.4495H30.5818L30.5987 35.434H30.5994L30.617 35.4192L30.6339 35.4044H30.6346L30.6515 35.3897L30.6684 35.3749H30.6691L30.686 35.3608L30.7029 35.3467L30.7198 35.3326L30.7367 35.3191L30.7536 35.3057L30.7699 35.2922L30.7868 35.2795L30.803 35.2667L30.8192 35.254H30.8199L30.8355 35.2419H30.8361L30.8517 35.2291L30.8679 35.217L30.8842 35.2056L30.8997 35.1935L30.9153 35.1821L30.9315 35.1706L30.9464 35.1599H30.9471L30.9619 35.1485L30.9775 35.1377L30.9931 35.1276L31.0079 35.1169H31.0086L31.0235 35.1068L31.0384 35.0967L31.0532 35.0867L31.0681 35.0773L31.083 35.0679L31.0979 35.0584L31.1128 35.049L31.127 35.0403L31.1412 35.0316L31.1561 35.0228L31.1703 35.0148L31.1838 35.0067H31.1845L31.198 34.998H31.1987L31.2122 34.9906L31.2264 34.9825L31.2399 34.9751L31.2541 34.9677L31.2677 34.9604L31.2812 34.9536L31.2947 34.9462L31.3082 34.9395L31.3218 34.9335L31.3346 34.9268H31.3353L31.3481 34.9207L31.361 34.9147L31.3745 34.9086L31.3874 34.9026L31.4002 34.8972L31.4131 34.8918L31.4259 34.8865L31.4388 34.8811L31.4509 34.8764L31.4638 34.8811L31.4766 34.8865L31.4895 34.8918L31.5023 34.8972L31.5152 34.9026L31.528 34.9086L31.5409 34.9147L31.5544 34.9207L31.5673 34.9268L31.5808 34.9335L31.5943 34.9395L31.6072 34.9462L31.6207 34.9536L31.6349 34.9604L31.6484 34.9677L31.662 34.9751L31.6762 34.9825L31.6897 34.9906L31.7039 34.998L31.7181 35.0067L31.7323 35.0148L31.7465 35.0228L31.7607 35.0316L31.7749 35.0403H31.7756L31.7898 35.049L31.8047 35.0584L31.8195 35.0679L31.8338 35.0773L31.8486 35.0867L31.8635 35.0967H31.8642L31.8791 35.1068L31.8939 35.1169L31.9095 35.1276L31.9244 35.1377H31.9251L31.9399 35.1485L31.9555 35.1599L31.9711 35.1706L31.9866 35.1821H31.9873L32.0022 35.1935H32.0028L32.0184 35.2056L32.0346 35.217L32.0509 35.2291L32.0664 35.2419H32.0671L32.0827 35.254H32.0833L32.0996 35.2667L32.1158 35.2795L32.132 35.2922L32.1489 35.3057L32.1652 35.3191H32.1658L32.1827 35.3326L32.1997 35.3467L32.2166 35.3608L32.2335 35.3749L32.2504 35.3897H32.2511L32.268 35.4044L32.2856 35.4192L32.3031 35.434L32.3207 35.4495L32.3383 35.4649L32.3559 35.4804H32.3566L32.3742 35.4965L32.3917 35.5126H32.3924L32.4107 35.5287L32.4283 35.5455H32.4289L32.5 35.6107H32.5006L32.571 35.6752L32.6413 35.7397L32.711 35.8035L32.78 35.8673L32.8483 35.9298H32.849L32.9166 35.9923L32.9842 36.0548H32.9849L33.0519 36.1159L33.1188 36.1777H33.1195L33.1858 36.2389L33.2527 36.2993L33.3197 36.3598L33.3867 36.4189L33.4529 36.4787L33.5199 36.5379L33.5868 36.597L33.6538 36.6554L33.7208 36.7139H33.7214L33.7884 36.7717H33.7891L33.8567 36.8294L33.925 36.8872L33.9933 36.9443L34.063 37.0014L34.1327 37.0579L34.203 37.1143L34.274 37.1707H34.2747L34.3464 37.2272L34.4188 37.2829L34.4925 37.3387L34.5669 37.3945L34.642 37.4495L34.7184 37.5046L34.7955 37.5604L34.8739 37.6148L34.9537 37.6699L35.0342 37.725H35.0349L35.1168 37.7794L35.1999 37.8345L35.2845 37.8889H35.2852L35.3711 37.9434L35.459 37.9978L35.5483 38.0522L35.6389 38.1066L35.7315 38.161L35.8256 38.2155H35.8262L35.9223 38.2699L36.0197 38.3243L36.1198 38.3787L36.2212 38.4331H36.2219L36.3254 38.4876L36.4309 38.542L36.5384 38.5971L36.6487 38.6515L36.761 38.7066L36.8753 38.7617L36.9923 38.8161L37.1113 38.8719L37.233 38.9269L37.3568 38.9827L37.4833 39.0378L37.6132 39.0936L37.745 39.15L37.879 39.2058L37.881 39.2071H37.8817L38.021 39.2642H38.0217L38.1657 39.322H38.1664L38.3118 39.3791H38.3125L38.4599 39.4355L38.6101 39.4913L38.7609 39.5457H38.7616L38.9138 39.6001L39.068 39.6525H39.0687L39.2235 39.7043H39.2242L39.3811 39.7553L39.5401 39.8057L39.6997 39.8548L39.8613 39.9025L40.0243 39.9502L40.188 39.9959L40.353 40.0415L40.5194 40.0859L40.6872 40.1289L40.8556 40.1712L41.0253 40.2122L41.1958 40.2525H41.1964L41.3676 40.2921L41.54 40.3304H41.5407L41.7139 40.3674L41.8884 40.4037L42.0635 40.4386H42.0642L42.2401 40.4729L42.4166 40.5058H42.4173L42.5945 40.5374L42.7723 40.5683H42.773L42.9516 40.5978L43.1315 40.6267L43.3114 40.6543L43.492 40.6805L43.6732 40.706L43.8552 40.7302L44.0371 40.753L44.2197 40.7745L44.4023 40.7953L44.5856 40.8148L44.7689 40.8336L44.9529 40.8504L45.1369 40.8666L45.3201 40.8813H45.3208L45.5048 40.8955L45.6888 40.9076L45.8734 40.919L46.0574 40.929L46.242 40.9378L46.426 40.9452L46.6099 40.9512H46.6106L46.7939 40.9566H46.7946L46.9779 40.96L47.1612 40.9626L47.3445 40.964H47.3451L47.5277 40.9633L47.7104 40.9626L47.893 40.96L48.0742 40.9559H48.0749L48.2562 40.9505L48.4368 40.9438H48.4374L48.6173 40.9358L48.7972 40.927L48.9765 40.9163L49.155 40.9042H49.1557L49.3498 40.8894L49.5426 40.8726L49.734 40.8538H49.7347L49.9247 40.8323L50.1141 40.8095L50.3014 40.7839H50.3021L50.4881 40.7564L50.6734 40.7275L50.8574 40.6959L51.0407 40.6623L51.222 40.6274L51.4019 40.5898L51.5811 40.5508L51.759 40.5098L51.9348 40.4675H51.9355L52.1107 40.4225L52.2845 40.3754L52.457 40.3277L52.6288 40.2774L52.7992 40.2256L52.9683 40.1719L53.136 40.1161L53.3024 40.059L53.4681 40.0006L53.6325 39.9401L53.7955 39.8783L53.9571 39.8145L54.1174 39.7493H54.1181L54.277 39.6821L54.4353 39.6142L54.5929 39.5444L54.7484 39.4725L54.9033 39.3999L55.0569 39.3253L55.209 39.2501L55.3605 39.1728L55.5107 39.0942L55.6595 39.0143L55.8076 38.933L55.9544 38.8504L56.0998 38.7664L56.2445 38.681L56.3879 38.5944L56.5299 38.507L56.6713 38.4177L56.8113 38.3277L56.95 38.2363L57.0879 38.1436L57.2246 38.0502L57.3605 37.9555L57.4944 37.8594L57.6283 37.7626L57.7609 37.6645L57.8914 37.5658L58.022 37.4657L58.1511 37.3642L58.2797 37.2628L58.4061 37.1593L58.5326 37.0558L58.6571 36.951L58.7815 36.8456L58.9039 36.7387L59.0257 36.6312L59.1467 36.5231C59.3638 36.3276 59.5214 36.1368 59.6303 35.954Z" fill="#FF9933"/>
</svg>
