<svg width="24" height="24" viewBox="0 0 24 24" fill="none" xmlns="http://www.w3.org/2000/svg">
<path d="M22.5 7.33333V16.6667C22.5 18.2138 21.8854 19.6975 20.7915 20.7915C19.6975 21.8854 18.2138 22.5 16.6667 22.5H7.33333C5.78624 22.5 4.30251 21.8854 3.20854 20.7915C2.11458 19.6975 1.5 18.2138 1.5 16.6667V7.33333C1.5 5.78624 2.11458 4.30251 3.20854 3.20854C4.30251 2.11458 5.78624 1.5 7.33333 1.5H16.6667C18.2138 1.5 19.6975 2.11458 20.7915 3.20854C21.8854 4.30251 22.5 5.78624 22.5 7.33333Z" stroke="white" stroke-width="2" stroke-linecap="round" stroke-linejoin="round"/>
<path d="M10.8333 22.4999V11.9999C10.8333 9.44725 11.4167 7.33325 15.5 7.33325M8.5 13.1666H15.5" stroke="white" stroke-width="2" stroke-linecap="round" stroke-linejoin="round"/>
</svg>
