<svg width="141" height="33" viewBox="0 0 141 33" fill="none" xmlns="http://www.w3.org/2000/svg">
<path d="M0 19.4702V1.375H6.3646C9.49465 1.375 11.9651 2.09621 13.7753 3.53864C15.586 4.98053 16.4911 7.27555 16.4911 10.4226C16.4911 13.5697 15.586 15.8642 13.7753 17.3066C11.9651 18.749 9.49465 19.4702 6.3646 19.4702H0ZM6.3646 15.9296C9.68351 15.9296 11.343 14.0941 11.343 10.4226C11.343 6.75113 9.68351 4.91511 6.3646 4.91511H4.95006V15.9296H6.3646ZM27.144 15.4944C27.7383 14.8856 28.0349 13.8881 28.0349 12.5019C28.0349 11.1157 27.7383 10.1182 27.144 9.50947C26.5502 8.90071 25.8192 8.59633 24.9517 8.59633C24.0847 8.59633 23.3537 8.90071 22.7599 9.50947C22.1656 10.1182 21.8684 11.1157 21.8684 12.5019C21.8684 13.8881 22.1656 14.8856 22.7599 15.4944C23.3537 16.1031 24.0847 16.4075 24.9517 16.4075C25.8192 16.4075 26.5502 16.1031 27.144 15.4944ZM19.1531 18.0651C17.6259 16.8476 16.8618 14.9932 16.8618 12.5019C16.8618 10.0101 17.6259 8.16058 19.1531 6.95224C20.6809 5.74391 22.6135 5.14002 24.9517 5.14002C27.2904 5.14002 29.2182 5.74391 30.7367 6.95224C32.2546 8.16058 33.0133 10.0101 33.0133 12.5019C33.0133 14.9932 32.2546 16.8476 30.7367 18.0651C29.2182 19.2826 27.2904 19.8914 24.9517 19.8914C22.6135 19.8914 20.6809 19.2826 19.1531 18.0651ZM34.0071 19.4702V6.20778C35.6851 5.49576 38.0238 5.14002 41.0221 5.14002C42.7191 5.14002 44.1054 5.47738 45.1803 6.15156C46.6509 5.47738 48.3577 5.14002 50.2996 5.14002C52.3743 5.14002 54.0621 5.60821 55.3629 6.54514C56.6642 7.48153 57.3146 8.90504 57.3146 10.8157V19.4702H52.4777V10.9843C52.4777 9.39215 51.6292 8.59633 49.9322 8.59633C48.9139 8.59633 48.1503 8.79258 47.6409 9.18617C47.7731 9.59814 47.839 10.1226 47.839 10.7594V19.4702H43.4827V10.9843C43.4827 9.39215 42.6342 8.59633 40.9372 8.59633C40.0697 8.59633 39.3719 8.72717 38.844 8.98938V19.4702H34.0071Z" fill="white"/>
<path d="M59.2129 1.37701H67.416C69.6976 1.37701 71.3804 1.83115 72.4651 2.73942C73.5493 3.64824 74.0914 4.82359 74.0914 6.26602C74.0914 8.25179 73.1014 9.52554 71.1213 10.0873C73.4785 10.7431 74.6569 12.1666 74.6569 14.3583C74.6569 15.8943 74.0963 17.1307 72.974 18.0671C71.8523 19.004 70.1123 19.4722 67.7551 19.4722H59.2129V1.37701ZM67.0481 11.8573H64.163V15.9316H67.0481C68.7641 15.9316 69.6219 15.2666 69.6219 13.9366C69.6219 12.5504 68.7641 11.8573 67.0481 11.8573ZM66.7085 4.91712H64.163V8.56969H66.7085C68.2738 8.56969 69.0564 7.95173 69.0564 6.71529C69.0564 5.51669 68.2738 4.91712 66.7085 4.91712ZM89.1996 10.4808V18.8819C87.1254 19.5566 84.7774 19.8934 82.1563 19.8934C79.8932 19.8934 78.163 19.5847 76.9656 18.9662C75.7683 18.3482 75.1696 17.2432 75.1696 15.651C75.1696 14.1145 75.6502 13.0046 76.6119 12.3212C77.5741 11.6373 79.2336 11.2956 81.5908 11.2956H84.3627V10.4808C84.3627 9.78775 84.1553 9.30063 83.7401 9.0195C83.3253 8.73837 82.7125 8.59834 81.9015 8.59834C80.1289 8.59834 78.347 8.90705 76.5558 9.52554L75.9898 6.06923C78.083 5.45127 80.1289 5.14203 82.128 5.14203C86.8424 5.14203 89.1996 6.92181 89.1996 10.4808ZM84.3627 16.7463V13.7679H82.6374C80.9779 13.7679 80.1479 14.3113 80.1479 15.398C80.1479 15.9035 80.3602 16.2971 80.7842 16.5782C81.2087 16.8588 81.7698 16.9993 82.4676 16.9993C83.0897 16.9993 83.7216 16.915 84.3627 16.7463ZM90.5608 19.4722V6.20979C91.2394 5.89136 92.126 5.63347 93.2195 5.43722C94.3134 5.24042 95.3318 5.14203 96.2744 5.14203C97.8397 5.14203 99.0371 5.26367 99.8671 5.5075L99.2728 8.96327C98.8765 8.75729 98.2452 8.65457 97.3776 8.65457C96.5101 8.65457 95.8504 8.75729 95.3976 8.96327V19.4722H90.5608ZM100.351 18.8819V0H105.188V5.61941C105.924 5.3572 106.81 5.22637 107.847 5.22637C110.11 5.22637 111.887 5.83026 113.179 7.03859C114.471 8.24692 115.117 10.05 115.117 12.4477C115.117 17.4119 112.269 19.8934 106.574 19.8934C104.273 19.8934 102.199 19.5566 100.351 18.8819ZM110.138 12.5883C110.138 11.2204 109.813 10.2327 109.162 9.62393C108.512 9.01463 107.715 8.71025 106.772 8.71025C106.131 8.71025 105.603 8.81351 105.188 9.0195V16.1565C105.584 16.3252 106.093 16.4095 106.716 16.4095C108.997 16.4095 110.138 15.1358 110.138 12.5883ZM130.394 12.026C130.394 12.5883 130.319 13.15 130.168 13.7117H120.692C120.692 14.6486 120.994 15.3326 121.597 15.7629C122.201 16.1938 123.144 16.4095 124.426 16.4095C126.444 16.4095 128.037 16.1754 129.207 15.7067L130.14 19.0224C128.537 19.6031 126.623 19.8934 124.398 19.8934C118.476 19.8934 115.516 17.4302 115.516 12.5039C115.516 9.97481 116.176 8.11555 117.496 6.92614C118.816 5.73673 120.655 5.14203 123.012 5.14203C125.35 5.14203 127.165 5.70375 128.457 6.82774C129.749 7.95173 130.394 9.68449 130.394 12.026ZM120.692 10.8739L120.947 11.2394H125.218C125.218 10.2089 125.044 9.47364 124.695 9.03356C124.346 8.59347 123.785 8.37343 123.012 8.37343C121.466 8.37343 120.692 9.2071 120.692 10.8739ZM131.445 19.4722V6.20979C132.123 5.89136 133.009 5.63347 134.103 5.43722C135.197 5.24042 136.216 5.14203 137.158 5.14203C138.724 5.14203 139.921 5.26367 140.75 5.5075L140.157 8.96327C139.76 8.75729 139.129 8.65457 138.262 8.65457C137.394 8.65457 136.734 8.75729 136.281 8.96327V19.4722H131.445Z" fill="#FF9933"/>
<path fill-rule="evenodd" clip-rule="evenodd" d="M47.9845 28.9335L48.015 28.8795V28.8789L48.0422 28.8249L48.0661 28.7713L48.0868 28.7189V28.7184L48.1037 28.6665V28.6659L48.1173 28.6151V28.6146L48.1276 28.5643L48.1347 28.5145V28.514L48.139 28.4653C48.1401 28.4491 48.1407 28.4329 48.1407 28.4172V28.4167L48.139 28.3702V28.3696L48.1347 28.3237V28.3232L48.1282 28.2783V28.2777L48.1184 28.2334V28.2329L48.1064 28.1902V28.1896L48.0922 28.1474V28.1469L48.0759 28.1058V28.1053L48.0569 28.0658V28.0653L48.0356 28.0263C47.7635 27.5479 47.0228 27.3268 46.5552 27.5987L46.4388 27.6647L46.3212 27.7284L46.202 27.789L46.0823 27.8474L46.0518 27.8614L46.0496 27.8625L46.0464 27.8642L46.0442 27.8647L46.0425 27.8658L46.0404 27.8669L46.0387 27.8674L46.0366 27.8685L46.0349 27.869L46.0333 27.8701L46.0311 27.8712L46.0295 27.8717L46.0273 27.8728L46.0257 27.8733L46.0235 27.8744L46.0219 27.8755L46.0197 27.876L46.0181 27.8771L46.0159 27.8782L46.0142 27.8787L46.0121 27.8798L46.0104 27.8804L46.0083 27.8815L46.0066 27.8825L46.0044 27.8831L46.0028 27.8842L46.0006 27.8847L45.999 27.8858L45.9968 27.8869L45.9952 27.8874L45.993 27.8885L45.9914 27.889L45.9892 27.8901L45.9876 27.8912L45.9854 27.8917L45.9838 27.8928L45.9821 27.8933L45.98 27.8944L45.9778 27.8955L45.9761 27.896L45.9609 27.9031L45.8384 27.9561L45.7149 28.0069L45.5897 28.0545L45.464 28.0999L45.3372 28.1426C45.2947 28.1561 45.2523 28.1696 45.2093 28.1826L45.0803 28.2199L44.9508 28.255L44.9382 28.2577L44.9361 28.2588L44.9323 28.2594L44.9301 28.2599L44.9279 28.2604L44.9263 28.261L44.9241 28.2615L44.9219 28.2621L44.9203 28.2626L44.9181 28.2631L44.9159 28.2637L44.9137 28.2642L44.9121 28.2648L44.9099 28.2653L44.9078 28.2658H44.9056L44.9039 28.2664L44.9018 28.2675H44.8996L44.8974 28.268L44.8958 28.2685L44.8936 28.2691L44.8914 28.2696L44.8893 28.2702L44.8876 28.2707L44.8854 28.2713L44.8833 28.2718L44.8811 28.2723L44.8789 28.2729H44.8773L44.8751 28.2734L44.8729 28.274L44.8708 28.2745L44.8691 28.275L44.8669 28.2756L44.8648 28.2761L44.8626 28.2767L44.8604 28.2772L44.8588 28.2777H44.8566L44.8544 28.2783L44.8528 28.2788L44.8446 28.281L44.8424 28.2815L44.8196 28.2869L44.6879 28.3161L44.5556 28.3432H44.5551C44.511 28.3513 44.4664 28.3599 44.4217 28.3675L44.2878 28.3891H44.2873L44.1523 28.4075L44.0168 28.4237H44.0163L43.8802 28.4372L43.743 28.448H43.7425L43.6048 28.4562L43.466 28.4616L43.3267 28.4637H43.1868L43.0464 28.461L42.9054 28.4556L42.7639 28.447L42.6219 28.4361L42.4798 28.4221H42.4793L42.3367 28.4059L42.1935 28.3864L42.1734 28.3837L42.1712 28.3832L42.169 28.3826H42.1669L42.1641 28.3821H42.162L42.1598 28.3815L42.1576 28.381H42.1554L42.1533 28.3805H42.1511L42.1484 28.3799L42.1462 28.3794H42.144L42.1418 28.3788L42.1396 28.3783H42.1375L42.1353 28.3778L42.1331 28.3772H42.1309L42.1288 28.3767L42.126 28.3761H42.1239L42.1217 28.3756L42.1195 28.3751H42.1173L42.1152 28.3745H42.113L42.1103 28.374L42.1086 28.3734H42.1059L42.1037 28.3729L42.1015 28.3723H42.0994L42.0972 28.3718L42.095 28.3713H42.0928L42.0907 28.3707L42.0879 28.3702H42.0858L42.0836 28.3696L42.0814 28.3691H42.0792L42.0722 28.368L42.0705 28.3675L42.0678 28.3669H42.0656L42.0498 28.3642L41.9062 28.3394L41.7619 28.3118L41.6172 28.281L41.4724 28.248L41.3276 28.2118L41.1823 28.1729L41.0375 28.1312H41.037L40.8917 28.0869L40.7463 28.0393H40.7458L40.6005 27.989C40.5515 27.9717 40.5036 27.9544 40.4552 27.9361H40.4546L40.4318 27.9274L40.4296 27.9269L40.4274 27.9258L40.4252 27.9247L40.423 27.9242L40.4209 27.9231L40.4181 27.9225L40.416 27.9215L40.4138 27.9204L40.4116 27.9198L40.4094 27.9188L40.4067 27.9182L40.4045 27.9171L40.4024 27.916L40.4002 27.9155L40.398 27.9144L40.3958 27.9139L40.3931 27.9128L40.3909 27.9117L40.3888 27.9112L40.3866 27.9101L40.3844 27.9096L40.3822 27.9085L40.3795 27.9074L40.3773 27.9069L40.3751 27.9058L40.373 27.9052L40.3708 27.9042L40.3681 27.9031L40.3659 27.9025L40.3637 27.9015L40.3615 27.9009L40.3594 27.8998L40.3572 27.8988L40.3545 27.8982L40.3523 27.8971L40.3501 27.896L40.3479 27.8955L40.3458 27.8944L40.343 27.8933L40.3409 27.8928L40.3387 27.8917L40.3365 27.8912L40.3343 27.8901L40.3321 27.889L40.3294 27.8885L40.3093 27.8804H40.3087L40.2728 27.8663V27.8658L40.2592 27.8604L40.2565 27.8598V27.8593L40.2407 27.8533L40.2385 27.8523L40.2364 27.8512L40.2342 27.8506V27.8501L40.2135 27.842L40.2113 27.8414V27.8409L40.2091 27.8404L40.207 27.8393L40.2048 27.8382L40.2021 27.8377V27.8371L40.1999 27.8366V27.836L40.1977 27.8355L40.1634 27.8214L40.0181 27.7598H40.0176L39.8722 27.6949L39.7269 27.6279H39.7264L39.5816 27.5576L39.4363 27.4841L39.2915 27.4084H39.291L39.1468 27.3295H39.1462C39.0978 27.3024 39.0499 27.2754 39.002 27.2473L38.9884 27.2397L38.9862 27.2386L38.984 27.237L38.9818 27.2359L38.9791 27.2343L38.9769 27.2332L38.9748 27.2316L38.9726 27.2305L38.9704 27.2294L38.9682 27.2278L38.9661 27.2267L38.9639 27.2251L38.9612 27.224L38.959 27.2224L38.9568 27.2213L38.9546 27.2197L38.9524 27.2186L38.9503 27.2175L38.9475 27.2159L38.9454 27.2148L38.9432 27.2132L38.941 27.2121L38.9388 27.2105L38.9367 27.2094L38.9345 27.2084L38.9318 27.2067L38.9296 27.2056L38.9231 27.2013L38.9209 27.2002L38.9187 27.1986L38.9165 27.1975L38.9138 27.1959L38.9116 27.1948L38.9095 27.1932L38.9073 27.1921L38.9051 27.1911L38.9029 27.1894L38.9007 27.1884L38.898 27.1867L38.8958 27.1851L38.8937 27.184L38.8915 27.1829L38.8893 27.1813L38.8871 27.1802L38.885 27.1786L38.8828 27.1775L38.8801 27.1759L38.8779 27.1748L38.8714 27.1705L38.8692 27.1694L38.867 27.1678L38.8643 27.1667L38.8577 27.1624L38.7141 27.0748H38.7135L38.5704 26.984H38.5698L38.4272 26.8905H38.4267L38.2841 26.7942L38.1415 26.6947L37.9994 26.592L37.8579 26.4866L37.8487 26.4801L37.8471 26.4785L37.8443 26.4769L37.8422 26.4752L37.84 26.4736L37.8378 26.4715L37.8356 26.4698L37.8334 26.4682L37.8313 26.4666L37.8291 26.465L37.8269 26.4634L37.8247 26.4617L37.8226 26.4601L37.8204 26.4585L37.8182 26.4569L37.816 26.4547L37.8139 26.4531L37.8111 26.4515L37.8095 26.4498L37.8068 26.4482L37.8051 26.4466L37.8024 26.445L37.8002 26.4428L37.7981 26.4412L37.7959 26.4396L37.7937 26.4379L37.7915 26.4363L37.7894 26.4347L37.7872 26.4331L37.785 26.4309L37.7828 26.4293L37.7807 26.4277L37.7785 26.426L37.7763 26.4244L37.7741 26.4228L37.7719 26.4212L37.7698 26.4196L37.7676 26.4179L37.7654 26.4158L37.7632 26.4142L37.7611 26.4125L37.7589 26.4109L37.7567 26.4087L37.7545 26.4071L37.7523 26.4055L37.7502 26.4039L37.748 26.4023L37.7458 26.4006L37.7436 26.399L37.7409 26.3974L37.7393 26.3952L37.7366 26.3936L37.7349 26.392L37.7322 26.3904L37.73 26.3887L37.717 26.3785L37.4873 26.1963L37.4868 26.1957L37.2652 26.0162H37.2647V26.0157L37.0508 25.8384L37.0497 25.8373H37.0492L36.844 25.6616H36.8434L36.8423 25.66H36.8418L36.6437 25.487L36.6421 25.4859L36.451 25.3156L36.316 25.1923L36.2649 25.1447L36.2616 25.1426L36.0847 24.9777L36.082 24.9744H36.0815L35.9111 24.8122L35.9084 24.8085L35.7424 24.6495L35.7391 24.6457L35.5807 24.4889H35.5802L35.5769 24.4852L35.4229 24.3311H35.4224L35.4186 24.3262H35.418L35.27 24.1759H35.2694L35.2656 24.1716H35.2651L35.1219 24.024L35.1176 24.0197H35.117L34.9782 23.8748L34.9734 23.8699L34.8384 23.7277L34.834 23.7228H34.8335L34.7023 23.5844L34.6974 23.579L34.5695 23.4439L34.5652 23.4385L34.4405 23.3071H34.44L34.4351 23.3017L34.3148 23.1736H34.3142L34.3083 23.1671L34.1896 23.0422L34.1836 23.0362L34.0688 22.9157H34.0682L34.0628 22.9092L34.0416 22.8881L33.9425 22.7854L33.8315 22.6718L33.8244 22.6654L33.7145 22.5551L33.7079 22.5491L33.5991 22.4426L33.5931 22.4361H33.5926L33.4848 22.3339L33.4777 22.3275L33.3705 22.2285L33.3634 22.2226L33.334 22.1966L33.2578 22.1285L33.2508 22.1226L33.1441 22.0317L33.1365 22.0258L33.1114 22.0058H33.1109L33.0233 21.9333H33.0227L32.916 21.8512C32.5693 21.6003 32.1666 21.3997 31.7399 21.2462C31.0541 20.9888 30.3139 20.8672 29.559 20.8672C28.1184 20.8672 26.8715 21.4084 26.2673 22.1955L26.2608 22.2026L26.245 22.2204L26.2358 22.2318L26.2309 22.2372L26.2129 22.2599L26.2107 22.2626L26.202 22.2734L26.1857 22.295L26.1808 22.302L26.1617 22.3285L26.1596 22.3312L26.1394 22.3615L26.1378 22.3637L26.1188 22.3929L26.1144 22.3999L26.1128 22.4026L26.1117 22.4048L26.1084 22.4096L26.1073 22.4118L26.1041 22.4161V22.4167L26.103 22.4188L26.097 22.4286L26.0954 22.4307L26.0926 22.435V22.4356L26.091 22.4372L26.0899 22.4404L26.0883 22.4426L26.0866 22.4448L26.0856 22.4469L26.0839 22.4496L26.0828 22.4518V22.4523L26.0812 22.4545L26.0796 22.4567L26.0785 22.4594L26.0768 22.4615L26.0752 22.4642L26.0741 22.4664L26.0725 22.4691L26.0714 22.4713L26.0698 22.474L26.0687 22.4761L26.0594 22.4913V22.4918L26.0458 22.5156V22.5161L26.0404 22.5259L26.0241 22.5561V22.5567L26.0213 22.561V22.5616L26.0023 22.5967V22.5972V22.5978L25.9838 22.6335L25.9805 22.6399V22.6405L25.98 22.6421V22.6426L25.9789 22.6443L25.9778 22.6459V22.6464L25.9756 22.6502L25.9751 22.6518L25.9729 22.6562L25.9718 22.6583L25.9696 22.6627L25.9685 22.6643L25.9658 22.6702V22.6708L25.9647 22.6724L25.962 22.6783V22.6789L25.9609 22.6805L25.9571 22.6886L25.956 22.6902V22.6908L25.9511 22.7005V22.701L25.95 22.7027V22.7032L25.9435 22.7173L25.9424 22.7189V22.7194L25.9413 22.721L25.9234 22.7605V22.761L25.9223 22.7627L25.9212 22.7648L25.9201 22.767L25.9196 22.7686V22.7692L25.9185 22.7708V22.7713L25.9125 22.7843L25.8983 22.8157L25.8782 22.8605L25.8776 22.8616V22.8621L25.8608 22.9005V22.9011L25.8591 22.9059V22.9065L25.8444 22.9405L25.8395 22.9519V22.9524L25.8281 22.98L25.821 22.9978L25.8118 23.0195V23.02L25.802 23.0438V23.0443L25.7492 23.1784V23.179L25.7481 23.1817V23.1822L25.7046 23.2963V23.2968L25.6964 23.3179V23.3184L25.6899 23.3352L25.6795 23.3628V23.3633L25.6752 23.3736L25.6474 23.4493L25.6469 23.4504V23.4509L25.6338 23.486V23.4866L25.593 23.5942V23.5947L25.5843 23.6174V23.618L25.5799 23.6288V23.6293L25.5696 23.6569V23.6574L25.5674 23.6628V23.6634L25.5418 23.7283V23.7288L25.5402 23.7331V23.7337L25.5293 23.7596V23.7602L25.5255 23.7693L25.5168 23.7904L25.5048 23.8196V23.8202L25.4972 23.8375V23.838L25.4929 23.8483V23.8488L25.4836 23.8699V23.8704L25.4809 23.8758V23.8764L25.446 23.951V23.9515L25.4433 23.9569V23.9575L25.4352 23.9737V23.9742L25.4303 23.9829V23.9834L25.4237 23.9953V23.9959L25.4177 24.0067V24.0072L25.4128 24.0153L25.4101 24.0197L25.402 24.0337L25.3922 24.0489L25.3911 24.051L25.3802 24.0662L25.3796 24.0667L25.3699 24.0802L25.3677 24.0829L25.3595 24.0926L25.3557 24.097L25.3492 24.1035L25.347 24.1051L25.3399 24.111L25.3372 24.1132L25.3301 24.1186L25.3214 24.1235L25.3198 24.124L25.3083 24.1283L25.2969 24.124L25.2958 24.1235L25.2871 24.1186L25.28 24.1132L25.2773 24.111L25.2702 24.1051L25.2681 24.1035L25.2615 24.097L25.2577 24.0926L25.2496 24.0829L25.2474 24.0802L25.237 24.0667L25.2365 24.0662L25.2262 24.051L25.2245 24.0489L25.2153 24.0337L25.2071 24.0197L25.2044 24.0153L25.1995 24.0072V24.0067L25.1935 23.9959V23.9953L25.1864 23.9834V23.9829L25.1821 23.9742V23.9737L25.1734 23.9575V23.9569L25.1706 23.9515V23.951L25.1358 23.8764V23.8758L25.1336 23.8704V23.8699L25.1244 23.8488V23.8483L25.1195 23.838V23.8375L25.1124 23.8202V23.8196L25.0999 23.7904L25.0912 23.7693L25.0879 23.7602V23.7596L25.077 23.7337V23.7331L25.0754 23.7288V23.7283L25.0498 23.6634V23.6628L25.0476 23.6574V23.6569L25.0368 23.6293V23.6288L25.0324 23.618V23.6174L25.0237 23.5947V23.5942L24.9834 23.4866V23.486L24.9698 23.4509V23.4504V23.4493L24.9415 23.3736L24.9377 23.3633V23.3628L24.9274 23.3352L24.9208 23.3184V23.3179L24.9127 23.2968V23.2963L24.8691 23.1822V23.1817L24.868 23.179V23.1784L24.8147 23.0443V23.0438L24.8049 23.02V23.0195L24.7962 22.9978L24.7891 22.98L24.7771 22.9524V22.9519L24.7728 22.9405L24.7581 22.9065V22.9059L24.7559 22.9011V22.9005L24.739 22.8621V22.8616L24.7385 22.8605L24.7189 22.8157L24.7048 22.7843L24.6988 22.7713V22.7708L24.6977 22.7692V22.7686L24.6966 22.767L24.6961 22.7648L24.695 22.7627L24.6939 22.761V22.7605L24.6928 22.7583L24.6922 22.7567V22.7562L24.6912 22.7546V22.754L24.6901 22.7524L24.689 22.7502L24.6884 22.7481L24.6873 22.7465V22.7459L24.6863 22.7443V22.7437L24.6852 22.7421L24.6841 22.74L24.6835 22.7378L24.6824 22.7356L24.6814 22.734V22.7335L24.6803 22.7319V22.7313L24.6797 22.7297V22.7292L24.6786 22.7275L24.6775 22.7254L24.6765 22.7232L24.6754 22.7216V22.721L24.6748 22.7194V22.7189L24.6737 22.7173L24.6726 22.7151L24.6716 22.7135V22.7129L24.671 22.7113V22.7108L24.6699 22.7091L24.6688 22.707L24.6677 22.7048L24.6667 22.7032V22.7027L24.6661 22.701V22.7005L24.665 22.6989L24.6639 22.6967L24.6629 22.6945L24.6618 22.6929V22.6924L24.6612 22.6908V22.6902L24.6601 22.6886L24.659 22.6864L24.658 22.6848V22.6843L24.6574 22.6827V22.6821L24.6563 22.6805L24.6552 22.6789V22.6783L24.6541 22.6767V22.6762L24.6531 22.6745L24.652 22.6724L24.6509 22.6708V22.6702L24.6503 22.6686V22.6681L24.6492 22.6664L24.6482 22.6643L24.6476 22.6627V22.6621L24.646 22.6605V22.6599L24.6454 22.6583L24.6443 22.6562L24.6433 22.6545V22.654L24.6422 22.6524V22.6518L24.6411 22.6502L24.6405 22.6486V22.6481L24.6395 22.6464V22.6459L24.6384 22.6443L24.6373 22.6426V22.6421L24.6362 22.6405V22.6399L24.6329 22.6335L24.615 22.5978L24.6144 22.5972V22.5967L24.5959 22.5616V22.561L24.5932 22.5567V22.5561L24.5769 22.5259L24.5714 22.5161V22.5156L24.5573 22.4918V22.4913L24.5486 22.4761L24.5475 22.474L24.5458 22.4713L24.5442 22.4691L24.5399 22.4615L24.5388 22.4594L24.5371 22.4567L24.536 22.4545L24.5317 22.4469L24.5301 22.4448L24.5028 22.3999L24.4979 22.3929L24.4794 22.3637L24.4778 22.3615L24.4571 22.3312L24.4555 22.3285L24.4364 22.302L24.431 22.295L24.4152 22.2734L24.4065 22.2626L24.4043 22.2599L24.3858 22.2372L24.3815 22.2318L24.3722 22.2204L24.3559 22.2026L24.3499 22.1955C23.7458 21.4084 22.4989 20.8672 21.0577 20.8672C20.9972 20.8672 20.9363 20.8683 20.8742 20.8704H20.8606L20.847 20.871C20.1841 20.8915 19.5354 21.0067 18.9285 21.2278L18.9002 21.2375C18.4648 21.3921 18.0539 21.5954 17.7012 21.8506L17.594 21.9333L17.5058 22.0058L17.4808 22.0252L17.4732 22.0312L17.3665 22.122L17.3594 22.128L17.2538 22.2226L17.2467 22.2285L17.1395 22.3275L17.1324 22.3339L17.0241 22.4361L17.0182 22.4426L16.9093 22.5491L16.9028 22.5551H16.9022L16.7928 22.6654H16.7923L16.7858 22.6718L16.6747 22.7854L16.5757 22.8881L16.5544 22.9092L16.5485 22.9157L16.4331 23.0362L16.4276 23.0422H16.4271L16.309 23.1671H16.3084L16.303 23.1736H16.3024L16.1822 23.3017L16.1767 23.3071L16.0521 23.4385L16.0477 23.4439L15.9198 23.579H15.9193L15.9149 23.5844L15.7832 23.7228L15.7789 23.7277H15.7783L15.6433 23.8699L15.639 23.8748H15.6384L15.5002 24.0197H15.4997L15.4953 24.024H15.4948L15.3516 24.1716L15.3473 24.1759L15.1987 24.3262L15.1943 24.3311L15.0403 24.4852L15.037 24.4889H15.0365L14.8781 24.6457L14.8748 24.6495H14.8743L14.7088 24.8085L14.7061 24.8122L14.5352 24.9744L14.5325 24.9777L14.3551 25.1426L14.3524 25.1447L14.3012 25.1923L14.1662 25.3156H14.1657L13.9752 25.4859H13.9746L13.9735 25.487H13.973L13.7754 25.66H13.7749L13.7733 25.6616L13.5675 25.8373L13.5664 25.8384L13.3525 26.0157L13.352 26.0162L13.1305 26.1957L13.1294 26.1963L12.9003 26.3785L12.7593 26.4866H12.7588L12.6178 26.592H12.6172L12.4757 26.6947L12.3331 26.7942L12.1905 26.8905H12.19L12.0469 26.984L11.9032 27.0748L11.7595 27.1624H11.7589L11.6153 27.2473H11.6147C11.5668 27.2754 11.5189 27.3024 11.4705 27.3295L11.4569 27.337L11.4547 27.3381L11.4504 27.3408L11.4482 27.3419L11.446 27.343L11.4433 27.3446L11.4411 27.3457L11.4389 27.3468L11.4367 27.3484L11.4346 27.3495L11.4324 27.3505L11.4302 27.3522L11.4275 27.3532L11.4253 27.3543L11.4231 27.3559L11.421 27.357L11.4188 27.3581L11.4166 27.3592L11.4139 27.3608L11.4117 27.3619L11.4095 27.363L11.4074 27.3646L11.4052 27.3657L11.403 27.3668L11.4008 27.3678L11.3981 27.3695L11.3959 27.3705L11.3937 27.3716L11.3916 27.3727L11.3894 27.3743L11.3872 27.3754L11.3845 27.3765L11.3823 27.3776L11.3801 27.3792L11.378 27.3803L11.3758 27.3814L11.3736 27.3824L11.3714 27.3841L11.3687 27.3851L11.3665 27.3862L11.3644 27.3873L11.3622 27.3889L11.36 27.39L11.3578 27.3911L11.3551 27.3922L11.3529 27.3938L11.3508 27.3949L11.3486 27.396L11.3464 27.3976L11.3442 27.3987L11.342 27.3997L11.3257 27.4084L11.1809 27.4841H11.1804L11.0356 27.5576L10.8903 27.6279L10.745 27.6949H10.7444L10.5991 27.7598L10.4538 27.8214H10.4533C10.4048 27.8414 10.3564 27.8609 10.3079 27.8804L10.1621 27.9361C10.1136 27.9544 10.0652 27.9717 10.0168 27.989H10.0162L9.8709 28.0393L9.72559 28.0869L9.57972 28.1312L9.43495 28.1729H9.43441L9.28963 28.2118L9.28038 28.2145L9.2782 28.215L9.27603 28.2156L9.2733 28.2161L9.27113 28.2166L9.26895 28.2172L9.26677 28.2177L9.2646 28.2183L9.26242 28.2188L9.26024 28.2194L9.25807 28.2199L9.25534 28.2204L9.25317 28.2215L9.25099 28.2221L9.24881 28.2226L9.24664 28.2231L9.24392 28.2237L9.24174 28.2242L9.23956 28.2248L9.23738 28.2253L9.23521 28.2258L9.23303 28.2264L9.23085 28.2269L9.22868 28.2275L9.22595 28.228L9.22378 28.2285L9.2216 28.2291L9.21942 28.2296L9.21725 28.2302L9.21452 28.2307L9.21235 28.2312L9.21017 28.2318L9.20799 28.2329H9.20582L9.20364 28.2339H9.20092L9.19929 28.2345L9.19656 28.235L9.19439 28.2356L9.19221 28.2361L9.19003 28.2372L9.18786 28.2377L9.18513 28.2383L9.18296 28.2388L9.18078 28.2394L9.1786 28.2399L9.17643 28.2404L9.17425 28.241L9.165 28.2431L9.16282 28.2437L9.16064 28.2442L9.15847 28.2448L9.15574 28.2453L9.15357 28.2458L9.14486 28.248H9.14432L9.00009 28.281H8.99954L8.85531 28.3118L8.71108 28.3394L8.5674 28.3642H8.56685L8.42371 28.3864H8.42317L8.28057 28.4059L8.13743 28.4221L7.99483 28.4361L7.85333 28.447H7.85278L7.71182 28.4556L7.6895 28.4567H7.68733H7.68515H7.68297L7.68079 28.4572H7.67862H7.67644H7.67426H7.67209L7.66991 28.4578H7.66773H7.66556H7.66338H7.6612H7.65848L7.65685 28.4583H7.65413H7.65249H7.64977H7.64759H7.64542H7.64324L7.64106 28.4589H7.63889H7.63671H7.63453H7.63236H7.63018H7.628L7.62582 28.4594H7.62365H7.62147H7.61929H7.61712H7.61494H7.61276L7.61058 28.4599H7.60786H7.60623H7.60351H7.60188L7.59262 28.4605H7.59045L7.57085 28.461H7.57031L7.43043 28.4637H7.42989H7.29056H7.29001L7.15123 28.4616L7.01244 28.4562L6.87474 28.448H6.8742L6.8595 28.447H6.85678L6.85515 28.4464H6.84862L6.84644 28.4459H6.84426H6.84209L6.83991 28.4453H6.83773H6.83556H6.83338L6.8312 28.4448H6.82902H6.82685H6.82467L6.82249 28.4443H6.82086H6.81814L6.81651 28.4437H6.81433L6.81215 28.4432H6.80998H6.8078H6.80562L6.80344 28.4426H6.80127H6.79909L6.79691 28.4421H6.79474H6.79256L6.79038 28.4416H6.78821H6.78657H6.7844L6.78222 28.441H6.78004H6.77786L6.77569 28.4405H6.77351H6.77133L6.76916 28.4399H6.76698H6.7648L6.76262 28.4394H6.76045L6.75827 28.4389L6.73704 28.4372L6.60043 28.4237L6.46491 28.4075H6.46437L6.32939 28.3891L6.1955 28.3675H6.19496C6.15033 28.3599 6.10624 28.3513 6.06161 28.3432L5.92936 28.3161H5.92882L5.79765 28.2869H5.7971L5.66648 28.255L5.53695 28.2199H5.5364L5.40796 28.1826H5.40741C5.36496 28.1696 5.32251 28.1561 5.28006 28.1426H5.27951L5.1527 28.0999L5.02697 28.0545L4.90234 28.0069L4.88492 27.9999L4.88274 27.9988L4.88057 27.9982L4.87893 27.9977L4.8773 27.9966L4.87512 27.9955L4.87295 27.995L4.87131 27.9944L4.86914 27.9934L4.86751 27.9928L4.86533 27.9917L4.86315 27.9912L4.86152 27.9901L4.85934 27.9896L4.85771 27.989L4.85553 27.988L4.8539 27.9869L4.85172 27.9863L4.85009 27.9858L4.84791 27.9847L4.84573 27.9842L4.8441 27.9831L4.84192 27.9826L4.84029 27.9815L4.83811 27.9809L4.83648 27.9804L4.83431 27.9793L4.83267 27.9782L4.8305 27.9777L4.82886 27.9771L4.82669 27.9761L4.82451 27.975L4.82288 27.9744L4.8207 27.9739L4.81907 27.9728L4.81689 27.9723L4.81526 27.9712L4.81308 27.9707L4.81145 27.9696L4.80927 27.969L4.80764 27.968L4.80546 27.9674L4.79947 27.9647L4.79784 27.9642L4.77879 27.9561L4.65633 27.9031L4.53496 27.8474L4.41468 27.789L4.29603 27.7284L4.17847 27.6647L4.062 27.5987C3.59556 27.3268 2.85374 27.5479 2.58106 28.0263L2.56038 28.0653V28.0658L2.54133 28.1053V28.1058L2.52446 28.1469V28.1474C2.51956 28.1615 2.51466 28.1756 2.51031 28.1896V28.1902L2.49833 28.2329V28.2334L2.48908 28.2777V28.2783L2.48201 28.3232V28.3237L2.47765 28.3696V28.3702L2.47656 28.4167V28.4172C2.47656 28.4329 2.47656 28.4491 2.47765 28.4653L2.48201 28.514V28.5145L2.48962 28.5643C2.49235 28.581 2.49616 28.5978 2.49997 28.6146V28.6151L2.51357 28.6659V28.6665C2.51847 28.6838 2.52446 28.7011 2.53044 28.7184V28.7189L2.55058 28.7713C2.5582 28.7892 2.56637 28.807 2.57453 28.8249L2.60174 28.8789V28.8795L2.63277 28.9335C2.72039 29.0806 2.8472 29.2341 3.02191 29.3915L3.11879 29.4785L3.21676 29.565L3.31581 29.651L3.41541 29.7358L3.5161 29.8202L3.61734 29.9034L3.71966 29.9867L3.82252 30.0683L3.92702 30.15L4.03152 30.2305L4.13711 30.31L4.24378 30.3889L4.351 30.4668L4.45931 30.5441L4.56871 30.6203L4.67865 30.6955L4.78968 30.7701L4.90125 30.8436L5.01391 30.9161L5.12712 30.988L5.24196 31.0582L5.35734 31.128L5.47327 31.1967H5.47381L5.59083 31.2642L5.70893 31.3307L5.82758 31.3961L5.94732 31.4605L6.06869 31.5237L6.19006 31.5859L6.31306 31.6465L6.43661 31.7065L6.56125 31.7649L6.68643 31.8227L6.8127 31.8789L6.94005 31.9335L7.0685 31.9876L7.19803 32.0401L7.32811 32.0914L7.45928 32.1412L7.59154 32.1898L7.72488 32.2368L7.85877 32.2828L7.99375 32.3277L8.12981 32.3709L8.26696 32.4126L8.40466 32.4531H8.40521L8.54399 32.4915L8.68387 32.5293L8.82483 32.5656L8.96689 32.5996L9.11003 32.6326L9.25371 32.6639H9.25426L9.39903 32.6942L9.54489 32.7223L9.69184 32.7494L9.83988 32.7748H9.84043L9.98901 32.798L10.1392 32.8202L10.2905 32.8407L10.4424 32.8591L10.5959 32.8764L10.7499 32.8916H10.7504L10.9055 32.9051L11.0617 32.917L11.2054 32.9267H11.206L11.3497 32.9354H11.3502L11.4944 32.9424H11.495L11.6398 32.9489L11.7851 32.9543H11.7856L11.9315 32.9586L12.0779 32.9618L12.2243 32.964H12.2248L12.3712 32.9645H12.3718L12.5187 32.9651L12.6662 32.964L12.8137 32.9618H12.8143L12.9618 32.9591L13.1098 32.9548L13.2578 32.95H13.2584L13.4064 32.944L13.5545 32.937L13.7025 32.9289H13.7031L13.8511 32.9197L13.9991 32.9099H13.9997L14.1477 32.8986L14.2958 32.8867L14.4438 32.8737L14.5913 32.8602H14.5918L14.7388 32.8451H14.7393L14.8863 32.8294L15.0338 32.8126L15.1802 32.7953H15.1807L15.3271 32.7769L15.473 32.7575L15.6189 32.7369H15.6194L15.7642 32.7159H15.7647L15.9095 32.6937L16.0537 32.6704H16.0543L16.1979 32.6466L16.3416 32.6218L16.4842 32.5964L16.6268 32.5699L16.7683 32.5423L16.9093 32.5142H16.9098L17.0497 32.485L17.1896 32.4553L17.3284 32.4244H17.3289L17.4666 32.3926L17.6043 32.3601L17.7404 32.3271H17.7409L17.8765 32.2931L18.0114 32.2585L18.1448 32.2228H18.1453L18.2776 32.186H18.2781L18.4098 32.1493L18.5405 32.1109H18.541L18.6705 32.0725L18.7995 32.033L18.9269 31.9925H18.9274L19.0537 31.9514L19.1789 31.9098L19.303 31.8676H19.3035L19.426 31.8238L19.5479 31.78L19.6682 31.7351H19.6687L19.7874 31.6897L19.9049 31.6438L20.0214 31.5973L20.1341 31.5513L20.1357 31.5502L20.244 31.5054L20.3501 31.4599L20.4541 31.4151L20.5564 31.3707L20.656 31.3259L20.754 31.2815L20.8498 31.2367L20.9439 31.1929L21.0359 31.1485L21.1262 31.1042L21.2144 31.0604L21.3015 31.0161L21.3864 30.9723L21.4697 30.9285H21.4702L21.5519 30.8847L21.6319 30.8409L21.7108 30.7971L21.7881 30.7533L21.8637 30.7095L21.9383 30.6657L22.0118 30.622L22.0836 30.5782L22.1543 30.5344L22.2235 30.4906L22.2915 30.4468H22.292L22.359 30.4025L22.4248 30.3587L22.4902 30.3143L22.5544 30.27L22.6175 30.2262L22.6796 30.1813L22.7411 30.137L22.8015 30.0927L22.8613 30.0478L22.9207 30.0029L22.9789 29.958L23.0366 29.9126L23.0937 29.8672L23.1503 29.8218H23.1509L23.2064 29.7764H23.207L23.2625 29.7304L23.318 29.6845L23.373 29.638L23.4274 29.5915L23.4818 29.545L23.5362 29.498L23.5896 29.4509H23.5901L23.6434 29.4033H23.644L23.6973 29.3558H23.6979L23.7512 29.3077L23.8046 29.2601H23.8051L23.8584 29.2114H23.859L23.9123 29.1628L23.9662 29.1136L24.0201 29.0638H24.0206L24.0745 29.0146H24.0751L24.1289 28.9644H24.1295L24.1839 28.9141L24.2389 28.8638H24.2394L24.2949 28.8124L24.351 28.7611L24.407 28.7092H24.4076L24.4642 28.6573L24.5219 28.6048L24.5366 28.5913L24.5513 28.5783L24.5654 28.5654H24.566L24.5801 28.5524L24.5943 28.5399H24.5948L24.6084 28.5275H24.609L24.6226 28.5151H24.6231L24.6373 28.5032L24.6509 28.4913H24.6514L24.665 28.4794L24.6786 28.4675H24.6792L24.6928 28.4562L24.7064 28.4448L24.72 28.4334L24.7336 28.4226L24.7472 28.4118L24.7603 28.401L24.7739 28.3907L24.7869 28.3805L24.8 28.3702H24.8006L24.8131 28.3605H24.8136L24.8261 28.3502L24.8392 28.3405L24.8523 28.3313L24.8648 28.3215L24.8773 28.3123L24.8904 28.3031L24.9023 28.2945H24.9029L24.9148 28.2853L24.9274 28.2767L24.9399 28.2685L24.9519 28.2599H24.9524L24.9644 28.2518L24.9763 28.2437L24.9883 28.2356L25.0003 28.228L25.0123 28.2204L25.0242 28.2129L25.0362 28.2053L25.0476 28.1983L25.0591 28.1912L25.071 28.1842L25.0825 28.1777L25.0934 28.1712H25.0939L25.1048 28.1642H25.1053L25.1162 28.1583L25.1277 28.1518L25.1385 28.1458L25.15 28.1399L25.1609 28.1339L25.1717 28.1285L25.1826 28.1226L25.1935 28.1172L25.2044 28.1123L25.2147 28.1069H25.2153L25.2256 28.102L25.236 28.0972L25.2468 28.0923L25.2572 28.0874L25.2675 28.0831L25.2779 28.0788L25.2882 28.0745L25.2985 28.0701L25.3083 28.0663L25.3187 28.0701L25.329 28.0745L25.3394 28.0788L25.3497 28.0831L25.3601 28.0874L25.3704 28.0923L25.3807 28.0972L25.3916 28.102L25.402 28.1069L25.4128 28.1123L25.4237 28.1172L25.4341 28.1226L25.445 28.1285L25.4564 28.1339L25.4673 28.1399L25.4782 28.1458L25.4896 28.1518L25.5005 28.1583L25.5119 28.1642L25.5233 28.1712L25.5348 28.1777L25.5462 28.1842L25.5576 28.1912L25.569 28.1983H25.5696L25.581 28.2053L25.593 28.2129L25.605 28.2204L25.6164 28.228L25.6284 28.2356L25.6403 28.2437H25.6409L25.6529 28.2518L25.6648 28.2599L25.6774 28.2685L25.6893 28.2767H25.6899L25.7018 28.2853L25.7144 28.2945L25.7269 28.3031L25.7394 28.3123H25.7399L25.7519 28.3215H25.7525L25.765 28.3313L25.778 28.3405L25.7911 28.3502L25.8036 28.3605H25.8042L25.8167 28.3702H25.8172L25.8303 28.3805L25.8434 28.3907L25.8564 28.401L25.87 28.4118L25.8831 28.4226H25.8836L25.8972 28.4334L25.9108 28.4448L25.9244 28.4562L25.9381 28.4675L25.9517 28.4794H25.9522L25.9658 28.4913L25.98 28.5032L25.9941 28.5151L26.0083 28.5275L26.0224 28.5399L26.0366 28.5524H26.0371L26.0513 28.5654L26.0654 28.5783H26.066L26.0807 28.5913L26.0948 28.6048H26.0954L26.1525 28.6573H26.153L26.2096 28.7092L26.2662 28.7611L26.3223 28.8124L26.3778 28.8638L26.4328 28.9141H26.4333L26.4878 28.9644L26.5422 29.0146H26.5427L26.5966 29.0638L26.6505 29.1136H26.651L26.7044 29.1628L26.7583 29.2114L26.8121 29.2601L26.866 29.3077L26.9194 29.3558L26.9732 29.4033L27.0271 29.4509L27.081 29.498L27.1349 29.545H27.1354L27.1893 29.5915H27.1899L27.2443 29.638L27.2993 29.6845L27.3542 29.7304L27.4103 29.7764L27.4663 29.8218L27.5229 29.8672L27.5801 29.9126H27.5806L27.6383 29.958L27.6966 30.0029L27.7559 30.0478L27.8158 30.0927L27.8762 30.137L27.9377 30.1813L27.9997 30.2262L28.0629 30.27L28.1271 30.3143L28.1918 30.3587H28.1924L28.2582 30.4025L28.3252 30.4468L28.3932 30.4906H28.3938L28.4629 30.5344L28.5336 30.5782L28.6055 30.622L28.6784 30.6657L28.753 30.7095L28.8286 30.7533H28.8292L28.9065 30.7971L28.9848 30.8409L29.0654 30.8847L29.147 30.9285H29.1476L29.2308 30.9723L29.3157 31.0161L29.4023 31.0604L29.491 31.1042L29.5813 31.1485L29.6733 31.1929L29.7675 31.2367L29.8633 31.2815L29.9612 31.3259L30.0608 31.3707L30.1626 31.4151L30.2671 31.4599L30.3732 31.5054L30.481 31.5502L30.4826 31.5513H30.4832L30.5953 31.5973H30.5958L30.7118 31.6438H30.7123L30.8293 31.6897H30.8299L30.9485 31.7351L31.0694 31.78L31.1907 31.8238H31.1913L31.3137 31.8676L31.4378 31.9098H31.4384L31.563 31.9514H31.5635L31.6898 31.9925L31.8177 32.033L31.9462 32.0725L32.0762 32.1109L32.2074 32.1493L32.3391 32.186L32.4719 32.2228L32.6058 32.2585L32.7408 32.2931L32.8763 32.3271L33.0129 32.3601L33.1501 32.3926H33.1506L33.2883 32.4244L33.4271 32.4553H33.4276L33.567 32.485L33.7074 32.5142L33.8484 32.5423H33.8489L33.9904 32.5699L34.1325 32.5964H34.133L34.2756 32.6218L34.4187 32.6466H34.4193L34.563 32.6704L34.7078 32.6937L34.8525 32.7159L34.9978 32.7369L35.1437 32.7575L35.2901 32.7769L35.4365 32.7953L35.5835 32.8126L35.7304 32.8294L35.8779 32.8451L36.0254 32.8602L36.1734 32.8737L36.3215 32.8867L36.469 32.8986H36.4695L36.6176 32.9099L36.7656 32.9197L36.9142 32.9289L37.0622 32.937L37.2108 32.944L37.3588 32.95L37.5069 32.9548H37.5074L37.6549 32.9591H37.6555L37.803 32.9618L37.9505 32.964L38.098 32.9651H38.0985L38.2455 32.9645L38.3924 32.964L38.5394 32.9618L38.6852 32.9586H38.6858L38.8316 32.9543L38.9769 32.9489H38.9775L39.1223 32.9424L39.267 32.9354L39.4113 32.9267L39.5549 32.917H39.5555L39.7117 32.9051L39.8668 32.8916L40.0208 32.8764H40.0214L40.1743 32.8591L40.3267 32.8407L40.4775 32.8202H40.478L40.6277 32.798L40.7768 32.7748L40.9249 32.7494L41.0723 32.7223L41.2182 32.6942L41.363 32.6639L41.5072 32.6326L41.6504 32.5996L41.7919 32.5656H41.7924L41.9334 32.5293L42.0732 32.4915L42.212 32.4531L42.3503 32.4126L42.4874 32.3709L42.6235 32.3277L42.7585 32.2828L42.8924 32.2368L43.0257 32.1898L43.158 32.1412L43.2891 32.0914L43.4192 32.0401L43.5482 31.9876H43.5487L43.6766 31.9335L43.804 31.8789L43.9308 31.8227L44.056 31.7649L44.1806 31.7065L44.3042 31.6465L44.4266 31.5859L44.5485 31.5237L44.6694 31.4605L44.7891 31.3961L44.9083 31.3307L45.0264 31.2642L45.1434 31.1967L45.2599 31.128L45.3753 31.0582L45.4896 30.988L45.6033 30.9161L45.716 30.8436L45.8276 30.7701L45.9386 30.6955L46.0485 30.6203L46.1579 30.5441L46.2657 30.4668L46.3735 30.3889L46.4801 30.31L46.5852 30.2305L46.6902 30.15L46.7942 30.0683L46.8976 29.9867L46.9994 29.9034L47.1011 29.8202L47.2013 29.7358L47.3014 29.651L47.3999 29.565L47.4979 29.4785L47.5953 29.3915C47.77 29.2341 47.8968 29.0806 47.9845 28.9335Z" fill="#FF9933"/>
</svg>
