<svg width="19" height="19" viewBox="0 0 19 19" fill="none" xmlns="http://www.w3.org/2000/svg">
<path d="M9.98876 0.265626C5.03221 0.265626 1 4.30288 1 9.26563C1 14.2284 5.03221 18.2656 9.98876 18.2656C12.7566 18.2656 15.2377 17.0095 16.8874 15.0339C17.1506 14.7187 17.0691 14.2527 16.7347 14.0145C16.3971 13.774 15.931 13.8575 15.6603 14.1714C15.0412 14.8892 14.2899 15.4846 13.4451 15.9236C12.3774 16.4785 11.1918 16.7673 9.98876 16.7656C5.8427 16.7656 2.49813 13.4169 2.49813 9.26563C2.49813 5.11438 5.8427 1.76563 9.98876 1.76563C11.1917 1.76422 12.3772 2.0532 13.4449 2.60807C14.2895 3.04702 15.0407 3.64213 15.6599 4.35965C15.9308 4.67363 16.3973 4.75713 16.7351 4.51653C17.0695 4.27835 17.1513 3.8126 16.8885 3.49717C16.1269 2.583 15.1899 1.8274 14.1303 1.27666C12.8508 0.611672 11.4303 0.264888 9.98876 0.265626ZM16.029 6.26634C15.7314 5.96825 15.2483 5.96822 14.9507 6.26627C14.6535 6.56383 14.6535 7.04587 14.9508 7.34336L16.1221 8.51563H6.99251V10.0156H16.1221L14.9508 11.1879C14.6536 11.4854 14.6535 11.9674 14.9507 12.265C15.2484 12.5631 15.7314 12.5631 16.0291 12.265L18.4861 9.80488C18.7738 9.503 18.7733 9.02804 18.4854 8.72638L16.029 6.26634Z" fill="white" stroke="white" stroke-width="0.5"/>
</svg>
