<svg width="117" height="96" viewBox="0 0 117 96" fill="none" xmlns="http://www.w3.org/2000/svg">
<path fill-rule="evenodd" clip-rule="evenodd" d="M24.375 6.07595C17.9806 6.07595 12.7969 11.2445 12.7969 17.6203V89.924H102.984V42.5405C102.984 40.8578 104.349 39.4937 106.031 39.4937C107.714 39.4937 109.078 40.8578 109.078 42.5405V89.924H113.962C115.64 89.924 117 91.2842 117 92.962C117 94.6398 115.64 96 113.962 96H3.03797C1.36015 96 0 94.6398 0 92.962C0 91.2842 1.36015 89.924 3.03797 89.924H6.70312V17.6203C6.70312 7.88886 14.6151 0 24.375 0H83.4844C97.6194 0 109.078 11.4252 109.078 25.519V26.7342C109.078 28.7476 107.441 30.3797 105.422 30.3797H94.4531C86.7125 30.3797 80.4375 24.1231 80.4375 16.4051V6.07595H24.375ZM86.5312 6.3119V16.4051C86.5312 20.7674 90.078 24.3038 94.4531 24.3038H102.947C102.381 15.1494 95.4615 7.70904 86.5312 6.3119ZM84.7031 58.9367C84.7031 60.6145 83.343 61.9747 81.6652 61.9747H35.9442C34.2664 61.9747 32.9062 60.6145 32.9062 58.9367C32.9062 57.2589 34.2664 55.8987 35.9442 55.8987H81.6652C83.343 55.8987 84.7031 57.2589 84.7031 58.9367ZM84.7031 76.557C84.7031 78.2348 83.343 79.5949 81.6652 79.5949H35.9442C34.2664 79.5949 32.9062 78.2348 32.9062 76.557C32.9062 74.8791 34.2664 73.519 35.9442 73.519H81.6652C83.343 73.519 84.7031 74.8791 84.7031 76.557Z" fill="white"/>
</svg>
