<svg width="25" height="22" viewBox="0 0 25 22" fill="none" xmlns="http://www.w3.org/2000/svg">
<path fill-rule="evenodd" clip-rule="evenodd" d="M25 1.78571C25 1.31211 24.8119 0.85791 24.477 0.523024C24.1421 0.188138 23.6879 0 23.2143 0H1.78572C1.31211 0 0.857908 0.188138 0.523022 0.523024C0.188135 0.85791 0 1.31211 0 1.78571C0 2.25932 0.188135 2.71352 0.523022 3.0484C0.857908 3.38329 1.31211 3.57143 1.78572 3.57143H23.2143C23.6879 3.57143 24.1421 3.38329 24.477 3.0484C24.8119 2.71352 25 2.25932 25 1.78571Z" fill="white"/>
<path fill-rule="evenodd" clip-rule="evenodd" d="M25 10.7187C25 10.2451 24.8119 9.79089 24.477 9.45601C24.1421 9.12112 23.6879 8.93298 23.2143 8.93298H1.78572C1.31211 8.93298 0.857908 9.12112 0.523022 9.45601C0.188135 9.79089 0 10.2451 0 10.7187C0 11.1923 0.188135 11.6465 0.523022 11.9814C0.857908 12.3163 1.31211 12.5044 1.78572 12.5044H23.2143C23.6879 12.5044 24.1421 12.3163 24.477 11.9814C24.8119 11.6465 25 11.1923 25 10.7187Z" fill="white"/>
<path fill-rule="evenodd" clip-rule="evenodd" d="M25 19.6414C25 19.1678 24.8119 18.7136 24.477 18.3787C24.1421 18.0439 23.6879 17.8557 23.2143 17.8557H12.5C12.0264 17.8557 11.5722 18.0439 11.2373 18.3787C10.9024 18.7136 10.7143 19.1678 10.7143 19.6414C10.7143 20.115 10.9024 20.5692 11.2373 20.9041C11.5722 21.239 12.0264 21.4271 12.5 21.4271H23.2143C23.6879 21.4271 24.1421 21.239 24.477 20.9041C24.8119 20.5692 25 20.115 25 19.6414Z" fill="white"/>
</svg>
