<svg width="83" height="22" viewBox="0 0 83 22" fill="none" xmlns="http://www.w3.org/2000/svg">
<g clip-path="url(#clip0_257_832)">
<path d="M20.2633 6.86046C18.0366 1.27213 11.8706 -1.38399 6.50015 0.928576C1.1297 3.24114 -1.4215 9.64531 0.805984 15.2345C3.03346 20.8237 9.19864 23.4781 14.5682 21.1655C19.9378 18.853 22.4916 12.4488 20.2633 6.86046Z" fill="black"/>
<path d="M14.318 1.56245C9.28067 -0.605415 3.50343 1.8847 1.41469 7.12415C-0.674058 12.3636 1.71699 18.3674 6.75345 20.5344C11.7899 22.7013 17.5671 20.213 19.6559 14.9735C21.7446 9.7341 19.3544 3.72854 14.318 1.56245Z" fill="black"/>
<path d="M19.2895 9.56272C19.2895 4.52746 15.3706 0.453613 10.5337 0.453613C5.6968 0.453613 1.78223 4.52746 1.78223 9.56272C1.78223 14.598 5.70109 18.6718 10.5337 18.6718C15.3664 18.6718 19.2895 14.5936 19.2895 9.56272Z" fill="#DDE460"/>
<path d="M10.5336 18.9089C5.51514 18.9089 1.44727 14.6788 1.44727 9.45533C1.44727 4.23186 5.51514 0 10.5336 0C15.5521 0 19.6208 4.23364 19.6208 9.45533C19.6208 14.677 15.5529 18.9089 10.5336 18.9089ZM10.5336 0.69954C8.85732 0.691807 7.21658 1.20024 5.8194 2.16036C4.42223 3.12048 3.33155 4.48905 2.68567 6.09255C2.0398 7.69605 1.8678 9.46224 2.1915 11.1672C2.5152 12.8721 3.32001 14.4391 4.50389 15.6693C5.68776 16.8995 7.19739 17.7376 8.84134 18.0773C10.4853 18.417 12.1895 18.243 13.738 17.5774C15.2864 16.9117 16.6093 15.7845 17.5389 14.3385C18.4686 12.8925 18.963 11.193 18.9597 9.45533C18.9571 4.61625 15.1864 0.689775 10.5336 0.684448V0.69954Z" fill="black"/>
<path d="M16.3356 13.7343C16.3356 9.56188 13.0813 6.17249 9.06827 6.17249C5.05521 6.17249 1.79834 9.55833 1.79834 13.7343C1.79834 17.9102 5.05264 21.2952 9.06484 21.2952C13.0771 21.2952 16.3322 17.9093 16.3322 13.7343H16.3356Z" fill="#A7DCDA"/>
<path d="M9.08377 21.6395C8.5434 21.6396 8.00455 21.5801 7.47632 21.462C3.37505 20.5494 0.763049 16.3477 1.64257 12.0794C1.84904 11.0664 2.24626 10.1055 2.81146 9.25181C3.37666 8.39811 4.09876 7.66835 4.9364 7.10432C5.77405 6.5403 6.71079 6.15308 7.69299 5.96483C8.6752 5.77659 9.68358 5.79102 10.6604 6.0073C14.7634 6.92167 17.3754 11.1225 16.4984 15.3907C16.1379 17.152 15.2067 18.7324 13.8597 19.8692C12.5127 21.006 10.831 21.6307 9.09405 21.6395H9.08377ZM9.06665 6.5142C7.48704 6.50952 5.95287 7.0619 4.71619 8.08061C3.4795 9.09932 2.61384 10.5238 2.26142 12.1199C1.90901 13.7161 2.0908 15.389 2.77693 16.8639C3.46306 18.3388 4.61272 19.5279 6.03704 20.2359C7.46136 20.9439 9.07563 21.1287 10.6146 20.7599C12.1537 20.391 13.5259 19.4906 14.5059 18.2064C15.4859 16.9222 16.0154 15.3306 16.0074 13.6932C15.9994 12.0558 15.4544 10.4699 14.4619 9.19606C13.8121 8.36071 12.9904 7.6864 12.057 7.2224C11.1235 6.75841 10.1019 6.51644 9.06665 6.5142Z" fill="black"/>
<path d="M19.924 14.052C19.9205 13.1286 19.6531 12.227 19.1556 11.461C18.6582 10.695 17.9529 10.0989 17.1289 9.74806C16.3049 9.39719 15.3991 9.30726 14.5258 9.4896C13.6526 9.67194 12.851 10.1184 12.2223 10.7726C11.5936 11.4268 11.166 12.2594 10.9934 13.1653C10.8208 14.0712 10.911 15.0098 11.2526 15.8626C11.5942 16.7154 12.1719 17.4442 12.9127 17.957C13.6535 18.4698 14.5243 18.7435 15.4151 18.7437C16.0084 18.7427 16.5956 18.6205 17.1432 18.3841C17.6909 18.1477 18.1883 17.8018 18.6069 17.3661C19.0256 16.9304 19.3573 16.4134 19.5831 15.8448C19.809 15.2762 19.9245 14.667 19.9232 14.052H19.924Z" fill="#F6DF3F"/>
<path d="M15.415 19.0864C14.4537 19.0903 13.5128 18.7983 12.7117 18.2475C11.9106 17.6966 11.2851 16.9117 10.9147 15.9922C10.5442 15.0726 10.4453 14.0598 10.6306 13.0819C10.8158 12.104 11.2769 11.2052 11.9554 10.4991C12.6338 9.79312 13.4991 9.3117 14.4417 9.11586C15.3843 8.92002 16.3618 9.01857 17.2503 9.39903C18.1389 9.77949 18.8985 10.4247 19.433 11.2531C19.9675 12.0814 20.2528 13.0555 20.2528 14.052C20.254 14.7119 20.1299 15.3655 19.8874 15.9756C19.645 16.5857 19.289 17.1403 18.8397 17.6078C18.3905 18.0753 17.8568 18.4465 17.2692 18.7002C16.6816 18.9539 16.0515 19.0851 15.415 19.0864ZM15.415 9.70476C14.5843 9.70107 13.7712 9.95305 13.0788 10.4288C12.3863 10.9045 11.8457 11.5826 11.5253 12.3771C11.2049 13.1716 11.1193 14.0468 11.2791 14.8918C11.439 15.7369 11.8373 16.5137 12.4234 17.1239C13.0095 17.7341 13.7572 18.1503 14.5717 18.3196C15.3862 18.489 16.2309 18.4039 16.9987 18.0753C17.7665 17.7466 18.423 17.1891 18.8849 16.4733C19.3468 15.7576 19.5933 14.9158 19.5934 14.0547C19.5956 13.4844 19.4892 12.9192 19.2802 12.3916C19.0713 11.864 18.7639 11.3844 18.3757 10.9802C17.9875 10.5761 17.5261 10.2553 17.018 10.0365C16.51 9.8176 15.9652 9.70487 15.415 9.70476ZM28.5949 11.569H27.0037L26.3571 14.7542H24.539L26.3066 6.15025H29.7322C31.1256 6.15025 32.077 7.16227 32.077 8.32965C32.0744 10.6369 30.3008 11.5664 28.5958 11.5664L28.5949 11.569ZM28.8193 7.41439H27.8498L27.2504 10.3067H27.8721C29.0916 10.3067 30.2195 10.0199 30.2195 8.51075C30.2221 7.82364 29.5292 7.41173 28.8201 7.41173L28.8193 7.41439ZM37.8688 12.455C37.6988 13.2089 37.5987 13.9779 37.5699 14.7516H35.8143C35.84 14.4302 35.953 13.8221 36.0524 13.2309C35.6036 14.068 34.8731 14.8945 33.6502 14.8945C32.393 14.8945 31.7576 14.021 31.7576 12.8305C31.7576 9.9267 34.26 8.13257 36.6442 8.13257C37.3661 8.13257 38.3004 8.26218 38.7346 8.42997L37.8688 12.455ZM36.311 9.3328C34.8791 9.3328 33.5706 10.9041 33.5706 12.637C33.5706 13.2167 33.7692 13.6952 34.4132 13.6952C35.2842 13.6952 36.1175 12.4523 36.4686 10.9005L36.8052 9.40382C36.6456 9.34968 36.4779 9.32563 36.3102 9.3328H36.311ZM44.5324 13.8869C43.9732 16.4942 43.0508 17.6802 40.289 17.6802C39.5532 17.6812 38.8219 17.5613 38.1223 17.3251L38.452 16.0415C39.0045 16.3419 39.6206 16.4945 40.2444 16.4853C41.7996 16.4853 42.3974 15.634 42.6843 14.4204L42.883 13.57C42.2835 14.3965 41.6635 14.756 40.6307 14.756C39.3461 14.756 38.7252 13.9313 38.7252 12.8349C38.7252 9.91871 41.2892 8.15121 43.6803 8.15121C44.3638 8.15374 45.0441 8.24864 45.7039 8.43352L44.5324 13.8869ZM43.3129 9.347C41.881 9.347 40.5493 10.8695 40.5493 12.6751C40.5493 13.2548 40.748 13.681 41.3586 13.681C42.5293 13.681 43.1759 12.1336 43.4371 10.9849L43.7976 9.43045C43.6409 9.37795 43.4776 9.34983 43.3129 9.347ZM51.8349 7.72332C51.2999 7.44989 50.7125 7.30428 50.1161 7.29721C49.3582 7.29721 48.2243 7.65852 48.2243 8.54892C48.2243 9.79975 51.5112 9.608 51.5112 11.9809C51.5112 13.8656 49.7924 14.8972 47.6899 14.8972C46.8662 14.9122 46.0457 14.7853 45.2621 14.5216L45.6988 13.1252C46.33 13.4613 47.0328 13.6271 47.7422 13.6073C48.6268 13.5948 49.6091 13.1812 49.6091 12.2251C49.6091 10.8721 46.3497 11.0133 46.3497 8.83211C46.3497 6.78232 48.3271 6.02064 50.224 6.02064C50.9215 6.01965 51.6134 6.15051 52.2656 6.4068L51.8349 7.72332ZM53.8046 12.0191C53.745 12.2152 53.7161 12.4199 53.7189 12.6254C53.7189 13.499 54.3655 13.8479 55.1251 13.8479C55.8042 13.8356 56.4669 13.6302 57.0409 13.254L56.9801 14.4036C56.2346 14.7566 55.4212 14.9285 54.6019 14.906C53.2454 14.906 51.9633 14.2988 51.9633 12.7124C51.9633 10.1442 53.8474 8.15832 56.0586 8.15832C57.0692 8.15832 58.2116 8.53206 58.2116 9.71897C58.2184 11.7492 55.3675 12.0191 53.8063 12.0191H53.8046ZM55.907 9.19431C54.965 9.19431 54.2799 10.2134 53.9664 11.0515C55.0866 11.0515 56.6538 10.8455 56.6538 9.82905C56.6684 9.34967 56.3318 9.19342 55.9139 9.19342L55.907 9.19431ZM63.9571 13.8896C63.3971 16.4969 62.4773 17.6829 59.712 17.6829C58.9768 17.6838 58.2461 17.5639 57.547 17.3278L57.8844 16.0486C58.4369 16.3492 59.053 16.5017 59.6769 16.4924C61.2329 16.4924 61.8298 15.6411 62.1159 14.4275L62.3163 13.5771C61.7168 14.4036 61.0968 14.7631 60.0623 14.7631C58.7777 14.7631 58.1593 13.9384 58.1593 12.842C58.1593 9.92581 60.7225 8.15832 63.1119 8.15832C63.7945 8.15875 64.4742 8.25126 65.1338 8.43352L63.9571 13.8896ZM62.7376 9.34967C61.3057 9.34967 59.9749 10.8721 59.9749 12.6778C59.9749 13.2575 60.1736 13.6836 60.7833 13.6836C61.9532 13.6836 62.5997 12.1363 62.8627 10.9875L63.2232 9.43311C63.066 9.38019 62.902 9.35206 62.7368 9.34967H62.7376ZM70.8528 13.2975C70.7499 13.7785 70.6707 14.2648 70.6156 14.7542H69.0099L69.1811 13.5948C68.6459 14.3548 67.9822 14.8972 66.9545 14.8972C65.9268 14.8972 65.2417 14.3734 65.2417 13.2992C65.2379 13.0521 65.2585 12.8052 65.3034 12.5624L66.1863 8.26662H67.9051L67.1249 12.1727C67.0692 12.3922 67.0359 12.6171 67.0256 12.8438C67.0256 13.3347 67.25 13.696 67.8477 13.696C68.7812 13.696 69.218 12.8083 69.3892 11.9792L70.16 8.26307H71.8728L70.8528 13.2975ZM76.4665 9.82549C76.3046 9.76467 76.1334 9.73459 75.9612 9.73672C74.8273 9.73672 74.1936 10.8739 73.9812 11.9064L73.3972 14.756H71.6655L72.6932 9.72429C72.8001 9.25172 72.8835 8.77378 72.9433 8.29237H74.5602L74.3246 9.62398C74.71 8.82501 75.4705 8.13967 76.3663 8.13967C76.534 8.13543 76.7015 8.15727 76.863 8.20448L76.4665 9.82549ZM78.98 14.8972C77.5986 14.8972 76.3252 14.1097 76.3252 12.5482C76.3252 10.0457 77.8812 8.14944 80.3579 8.14944C81.7393 8.14944 82.9965 8.91112 82.9965 10.4842C82.9965 12.961 81.4156 14.8972 78.9766 14.8972H78.98ZM80.0633 9.34967C78.7787 9.34967 78.1347 11.2317 78.1347 12.3547C78.1347 13.1288 78.4208 13.6978 79.2292 13.6978C80.4864 13.6978 81.2092 11.8016 81.2092 10.6902C81.2092 9.91427 80.8718 9.347 80.0633 9.347V9.34967Z" fill="black"/>
</g>
<defs>
<clipPath id="clip0_257_832">
<rect width="83" height="22" fill="white"/>
</clipPath>
</defs>
</svg>
