<svg width="24" height="18" viewBox="0 0 24 18" fill="none" xmlns="http://www.w3.org/2000/svg">
<path d="M13.9307 9.43945C13.0513 9.43945 12.1916 9.17868 11.4604 8.69011C10.7293 8.20155 10.1594 7.50713 9.82283 6.69468C9.4863 5.88223 9.39825 4.98823 9.56981 4.12574C9.74137 3.26324 10.1648 2.47099 10.7867 1.84916C11.4085 1.22734 12.2007 0.803872 13.0632 0.632311C13.9257 0.46075 14.8197 0.548802 15.6322 0.88533C16.4446 1.22186 17.1391 1.79175 17.6276 2.52294C18.1162 3.25413 18.377 4.11377 18.377 4.99316C18.377 6.17239 17.9085 7.30332 17.0747 8.13716C16.2408 8.971 15.1099 9.43945 13.9307 9.43945ZM13.9307 2.32539C13.403 2.32539 12.8872 2.48185 12.4485 2.77499C12.0098 3.06813 11.6679 3.48478 11.466 3.97225C11.264 4.45972 11.2112 4.99612 11.3142 5.51362C11.4171 6.03112 11.6712 6.50647 12.0443 6.87956C12.4174 7.25266 12.8927 7.50674 13.4102 7.60967C13.9277 7.71261 14.4641 7.65978 14.9516 7.45786C15.439 7.25595 15.8557 6.91401 16.1488 6.4753C16.442 6.03659 16.5984 5.5208 16.5984 4.99316C16.5984 4.28563 16.3174 3.60707 15.8171 3.10676C15.3168 2.60646 14.6382 2.32539 13.9307 2.32539Z" fill="white"/>
<path d="M22.2309 17.74C21.996 17.7369 21.7716 17.6422 21.6055 17.4761C21.4394 17.31 21.3447 17.0856 21.3417 16.8507C21.3417 14.5386 20.0848 12.9973 13.9312 12.9973C7.77752 12.9973 6.5207 14.5386 6.5207 16.8507C6.5207 17.0866 6.42701 17.3127 6.26024 17.4795C6.09348 17.6463 5.86729 17.74 5.63144 17.74C5.3956 17.74 5.16941 17.6463 5.00264 17.4795C4.83588 17.3127 4.74219 17.0866 4.74219 16.8507C4.74219 11.2188 11.1804 11.2188 13.9312 11.2188C16.6819 11.2188 23.1202 11.2188 23.1202 16.8507C23.1171 17.0856 23.0224 17.31 22.8563 17.4761C22.6902 17.6422 22.4658 17.7369 22.2309 17.74Z" fill="white"/>
<path d="M7.19513 10.4041H6.81571C5.87233 10.3129 5.00381 9.85068 4.40122 9.11912C3.79863 8.38757 3.51134 7.4466 3.60253 6.50321C3.69372 5.55983 4.15594 4.69131 4.88749 4.08872C5.61905 3.48613 6.56002 3.19884 7.5034 3.29003C7.62437 3.29523 7.74299 3.32507 7.85201 3.37774C7.96103 3.4304 8.05815 3.50477 8.13742 3.59629C8.21668 3.68781 8.27642 3.79455 8.31298 3.90998C8.34953 4.0254 8.36213 4.14707 8.35001 4.26754C8.33788 4.388 8.30128 4.50472 8.24245 4.61054C8.18362 4.71637 8.1038 4.80906 8.00789 4.88294C7.91197 4.95683 7.80198 5.01035 7.68465 5.04023C7.56732 5.0701 7.44512 5.0757 7.32555 5.05669C7.0941 5.03361 6.86037 5.05741 6.63832 5.12667C6.41627 5.19594 6.21045 5.30924 6.03317 5.45982C5.85309 5.60507 5.70374 5.78471 5.59382 5.98828C5.48389 6.19184 5.41559 6.41526 5.3929 6.64549C5.36838 6.87862 5.3905 7.11429 5.45797 7.33878C5.52544 7.56326 5.63692 7.77208 5.78589 7.95306C5.93487 8.13404 6.11837 8.28356 6.32571 8.39291C6.53305 8.50227 6.76007 8.56926 6.99356 8.59C7.37955 8.62302 7.76596 8.53161 8.09624 8.32915C8.2975 8.20494 8.53985 8.16577 8.76999 8.22024C9.00013 8.27472 9.1992 8.41839 9.32342 8.61965C9.44763 8.8209 9.48681 9.06326 9.43233 9.2934C9.37785 9.52354 9.23418 9.72261 9.03293 9.84682C8.48301 10.1976 7.84723 10.3903 7.19513 10.4041Z" fill="white"/>
<path d="M0.889257 16.8498C0.654366 16.8467 0.42996 16.7521 0.263853 16.5859C0.0977462 16.4198 0.00307086 16.1954 0 15.9605C0 12.7592 0.853687 10.625 5.03912 10.625C5.27497 10.625 5.50116 10.7187 5.66792 10.8855C5.83469 11.0522 5.92838 11.2784 5.92838 11.5143C5.92838 11.7501 5.83469 11.9763 5.66792 12.1431C5.50116 12.3098 5.27497 12.4035 5.03912 12.4035C2.25279 12.4035 1.77851 13.2928 1.77851 15.9605C1.77544 16.1954 1.68077 16.4198 1.51466 16.5859C1.34855 16.7521 1.12415 16.8467 0.889257 16.8498Z" fill="white"/>
</svg>
