<svg width="26" height="25" viewBox="0 0 26 25" fill="none" xmlns="http://www.w3.org/2000/svg">
<path fill-rule="evenodd" clip-rule="evenodd" d="M11.1899 11.7784C11.0233 11.7784 10.8883 11.9089 10.8883 12.07V13.3663H21.0447V12.07C21.0447 11.9089 20.9096 11.7784 20.743 11.7784H11.1899ZM22.3184 13.3663V12.07C22.3184 11.2288 21.6131 10.5469 20.743 10.5469H11.1899C10.3199 10.5469 9.61453 11.2288 9.61453 12.07V13.3663H9.24581C8.00548 13.3663 7 14.3384 7 15.5376V22.3756C7 23.5748 8.00548 24.5469 9.24581 24.5469H22.7542C23.9945 24.5469 25 23.5748 25 22.3756V15.5376C25 14.3384 23.9945 13.3663 22.7542 13.3663H22.3184ZM9.24581 14.5978C8.70895 14.5978 8.27374 15.0186 8.27374 15.5376V22.3756C8.27374 22.8946 8.70895 23.3154 9.24581 23.3154H22.7542C23.291 23.3154 23.7263 22.8946 23.7263 22.3756V15.5376C23.7263 15.0186 23.291 14.5978 22.7542 14.5978H9.24581Z" fill="white" stroke="white" stroke-width="0.5"/>
<path fill-rule="evenodd" clip-rule="evenodd" d="M1.00539 2.91709C0.914695 1.6303 1.98075 0.546875 3.32095 0.546875H7.23174V1.81003H3.32095C2.73832 1.81003 2.28098 2.27943 2.31992 2.83193C2.54316 5.9994 2.859 10.1404 3.17575 13.5879C3.3342 15.3125 3.4924 16.8582 3.63888 18.0202C3.71223 18.602 3.78173 19.0803 3.84575 19.4337C3.85855 19.5044 3.87092 19.5689 3.8828 19.6272H8.16788V20.8904H4.04193V23.184C4.04193 23.2408 4.0887 23.2837 4.14431 23.2837H9V24.5469H4.14431C3.35738 24.5469 2.7244 23.9349 2.7244 23.184V20.384C2.69494 20.3039 2.67229 20.2231 2.65418 20.1529C2.61782 20.0121 2.5824 19.8418 2.54764 19.6498C2.47794 19.265 2.40528 18.762 2.33087 18.1717C2.18183 16.9895 2.02216 15.4278 1.8633 13.6988C1.54544 10.2392 1.22892 6.08861 1.00539 2.91709Z" fill="white" stroke="white" stroke-width="0.5"/>
<path fill-rule="evenodd" clip-rule="evenodd" d="M12.9948 2.89028C13.0821 1.62002 12.0568 0.546875 10.7654 0.546875H7V1.79476H10.7654C11.3254 1.79476 11.7667 2.25935 11.7291 2.80614C11.5744 5.05915 11.3734 7.81127 11.159 10.4474L12.4236 10.5469C12.6384 7.90442 12.8398 5.14702 12.9948 2.89028Z" fill="white" stroke="white" stroke-width="0.5"/>
</svg>
