<svg width="5" height="9" viewBox="0 0 5 9" fill="none" xmlns="http://www.w3.org/2000/svg">
<path d="M0.1113 0.105909C0.0399466 0.175149 0 0.268098 0 0.364887C0 0.461676 0.0399466 0.554625 0.1113 0.623865L4.09772 4.5L0.1113 8.37536C0.0399466 8.4446 0 8.53755 0 8.63434C0 8.73113 0.0399466 8.82408 0.1113 8.89332C0.145983 8.92708 0.18745 8.95391 0.233254 8.97224C0.279058 8.99056 0.328271 9 0.377988 9C0.427705 9 0.476918 8.99056 0.522722 8.97224C0.568527 8.95391 0.609994 8.92708 0.644676 8.89332L4.88387 4.77061C4.95833 4.69821 5 4.6011 5 4.5C5 4.3989 4.95833 4.30179 4.88387 4.22939L0.644676 0.106685C0.609994 0.0729221 0.568527 0.046087 0.522722 0.0277637C0.476918 0.00944028 0.427705 0 0.377988 0C0.328271 0 0.279058 0.00944028 0.233254 0.0277637C0.18745 0.046087 0.145983 0.0729221 0.1113 0.106685V0.105909Z" fill="#717171"/>
</svg>
