<svg width="92" height="22" viewBox="0 0 92 22" fill="none" xmlns="http://www.w3.org/2000/svg">
<path fill-rule="evenodd" clip-rule="evenodd" d="M1.94632 20.8122H13.6176C14.6868 20.8122 15.5606 19.9412 15.5606 18.8797V13.7361L14.3756 14.9357C14.2234 15.0902 14.177 15.1428 14.1373 15.1855C13.7732 15.5668 13.5878 15.7574 13.1906 15.7607C12.7868 15.7607 12.6014 15.5701 12.234 15.1822C12.1612 15.1067 12.0784 15.0212 12.0023 14.9456L8.47377 11.3698L8.30827 11.2022C7.90775 10.8045 7.7257 10.6204 7.77535 10.203C7.78528 10.1143 7.80514 10.042 7.83162 9.97298H5.26963C5.22991 9.80207 5.21005 9.62131 5.21005 9.43726V6.32485C5.21005 5.6248 5.50133 4.9872 5.96805 4.52379C6.43146 4.06366 7.07692 3.77444 7.78197 3.77444C8.48701 3.77444 9.12917 4.06366 9.59589 4.52379C10.0593 4.9872 10.3506 5.6248 10.3506 6.32485V8.07989C10.5757 8.14563 10.7147 8.29681 10.9365 8.5433C11.006 8.62218 11.0953 8.71749 11.2311 8.85553L13.1873 10.8374L13.9983 10.0124C13.8758 9.98612 13.7467 9.97298 13.6176 9.97298H12.9622C12.9821 9.79879 12.992 9.61802 12.992 9.43726V6.32485C12.992 4.90175 12.4061 3.60683 11.4628 2.67014C10.5194 1.73346 9.21523 1.15173 7.78197 1.15173C6.3454 1.15173 5.04454 1.73346 4.09786 2.67014C3.15449 3.60683 2.56861 4.90175 2.56861 6.32485V9.43726C2.56861 9.61802 2.57854 9.79879 2.5984 9.97298H1.94632C0.873858 9.97298 0 10.8439 0 11.9055V18.8797C0 19.9412 0.873858 20.8122 1.94632 20.8122ZM15.5606 11.8693C15.554 11.4355 15.3984 11.0378 15.1469 10.719L13.1873 12.7041L10.3241 9.80536C10.3142 9.86123 10.3042 9.9171 10.291 9.97298H9.64223L9.56279 10.0519C9.44693 10.1636 9.35756 10.2491 9.27812 10.3181L12.9424 14.0286C13.0483 14.1371 13.1244 14.2127 13.1873 14.2817L13.4389 14.0221L15.5606 11.8693ZM13.1873 14.4526C13.2833 14.4526 13.2237 14.4329 13.184 14.3935C13.1443 14.4329 13.088 14.4526 13.1873 14.4526ZM9.08614 10.3509C9.0729 10.443 9.08614 10.4167 9.11262 10.3674L9.10931 10.3575L9.08614 10.3312V10.3509ZM9.08614 10.3312L9.10931 10.3542C9.09938 10.3115 9.09607 10.2753 9.08614 10.3312ZM6.59034 14.4953L6.58703 14.5019L6.58372 14.5118V14.5151L6.58041 14.5216L6.57379 14.5282L6.57048 14.5381L6.56717 14.5479L6.56386 14.5545L6.56055 14.5644L6.55724 14.5709L6.55393 14.5742L6.55062 14.5808L6.54731 14.5907V14.5939L6.54069 14.6104L6.53738 14.6169L6.53407 14.6268L6.53076 14.6334V14.6367L6.52745 14.6465L6.52414 14.6564L6.52083 14.663L6.51752 14.6728L6.51421 14.6827L6.5109 14.6925L6.50428 14.7188L6.50097 14.7254V14.7287L6.49766 14.7386L6.49435 14.7484V14.755L6.49104 14.7583V14.7681L6.48773 14.778L6.48442 14.7879V14.7977L6.4778 14.8141V14.8207V14.824L6.47449 14.8437L6.47118 14.8536L6.46787 14.8733V14.8832L6.46456 14.893V14.9029L6.46125 14.9127V14.9193V14.9226L6.45794 14.9423V14.9522V14.9653L6.45463 14.9752V14.985V14.9949V15.0048V15.0146L6.45132 15.0179V15.0245V15.0343V15.0442V15.0508V15.0541V15.0869C6.45132 15.6128 6.75916 16.0663 7.20933 16.2767C7.20602 16.2997 7.20271 16.3227 7.20271 16.349V18.0054C7.20271 18.3209 7.4642 18.5773 7.78197 18.5773C8.09643 18.5773 8.35792 18.3209 8.35792 18.0054V16.349C8.35792 16.3227 8.35461 16.2997 8.3513 16.2767C8.80147 16.0663 9.10931 15.6128 9.10931 15.0869V15.0541V15.0508V15.0442V15.0343V15.0245V15.0179V15.0146V15.0048L9.106 14.9949V14.985V14.9752V14.9653L9.10269 14.9522V14.9423L9.09938 14.9226V14.9193V14.9127L9.09607 14.9029V14.8832L9.09276 14.8733L9.08945 14.8536V14.8437L9.08283 14.824V14.8207V14.8141L9.07952 14.7977L9.07621 14.7879L9.0729 14.778L9.06958 14.7681V14.7583V14.755L9.06627 14.7484L9.06297 14.7386L9.05966 14.7287V14.7254V14.7188L9.04972 14.6925L9.04642 14.6827L9.04311 14.6728L9.03979 14.663L9.03648 14.6564L9.03317 14.6465L9.02986 14.6367V14.6334L9.02656 14.6268L9.02324 14.6169L9.01993 14.6104L9.01662 14.6005L9.01331 14.5907L9.01 14.5808L9.00338 14.5644L9.00007 14.5545L8.99345 14.5479L8.99014 14.5381L8.98683 14.5282L8.98352 14.5216L8.98021 14.5151L8.9769 14.5118L8.97359 14.5019L8.97028 14.4953C8.75182 14.0615 8.30165 13.7657 7.78197 13.7657C7.26229 13.7657 6.80881 14.0615 6.59034 14.4953Z" fill="#666666"/>
<path fill-rule="evenodd" clip-rule="evenodd" d="M13.1872 11.7707C14.9316 10.0025 16.6793 8.23102 18.4237 6.46283C19.0295 5.85152 18.8309 5.85481 19.4499 6.45626C19.6551 6.65346 19.8603 6.85394 20.0622 7.05442C20.7375 7.70845 20.7871 7.50469 20.1549 8.14886C18.0729 10.2589 15.9908 12.3689 13.9055 14.4789C13.0846 15.3104 13.2931 15.3169 12.4722 14.4854C11.2972 13.2957 10.1221 12.1026 8.94371 10.9096C8.18901 10.1471 8.2817 10.3837 9.09928 9.5851C9.22837 9.46021 9.35747 9.33532 9.48656 9.21043C10.2346 8.48081 9.99631 8.53996 10.7609 9.31232C11.5686 10.134 12.3796 10.9523 13.1872 11.7707Z" fill="#96C122"/>
<path d="M22.9023 0.316895H22.5779V21.992H22.9023V0.316895Z" fill="#999999"/>
<path d="M31.3862 6.36751C30.9161 6.59429 30.2971 6.70603 29.5325 6.70603C28.5362 6.70603 27.755 6.41681 27.1857 5.83508C26.613 5.25335 26.3284 4.481 26.3284 3.51145C26.3284 2.48275 26.6494 1.64466 27.2883 1.00378C27.9304 0.362888 28.7646 0.0440872 29.7874 0.0440872C30.4196 0.0440872 30.9525 0.122966 31.3862 0.284009V1.68082C30.9525 1.42117 30.4593 1.293 29.9032 1.293C29.2942 1.293 28.801 1.48362 28.427 1.86487C28.0529 2.24282 27.8676 2.75882 27.8676 3.40957C27.8676 4.03074 28.043 4.5303 28.3972 4.8984C28.748 5.26979 29.2247 5.45384 29.8238 5.45384C30.3931 5.45384 30.9161 5.3158 31.3862 5.03972V6.36751ZM35.1497 6.70603C34.2196 6.70603 33.4616 6.40695 32.8757 5.8055C32.2898 5.20405 31.9985 4.42184 31.9985 3.45887C31.9985 2.44002 32.2964 1.61837 32.8889 0.987342C33.4847 0.359601 34.2725 0.0440872 35.2523 0.0440872C36.1791 0.0440872 36.9272 0.346455 37.4998 0.947903C38.0725 1.54935 38.3572 2.34471 38.3572 3.3274C38.3572 4.33968 38.0592 5.15804 37.4667 5.77592C36.8742 6.39709 36.103 6.70603 35.1497 6.70603ZM35.2126 1.293C34.6995 1.293 34.2924 1.48362 33.9912 1.86815C33.69 2.2494 33.5377 2.75225 33.5377 3.38328C33.5377 4.02088 33.69 4.52373 33.9912 4.8984C34.2924 5.26979 34.6863 5.45384 35.1762 5.45384C35.6793 5.45384 36.0798 5.27307 36.3744 4.91155C36.669 4.55002 36.818 4.05046 36.818 3.40957C36.818 2.74239 36.6756 2.21982 36.3877 1.84843C36.103 1.48033 35.7091 1.293 35.2126 1.293ZM46.8276 6.59429H45.3844V2.7391C45.3844 2.32499 45.4043 1.86486 45.4374 1.36201H45.4043C45.3282 1.75641 45.2586 2.03905 45.1991 2.21653L43.6797 6.59429H42.4848L40.9357 2.25926C40.896 2.14423 40.8265 1.84186 40.7338 1.36201H40.6908C40.7305 1.99633 40.7503 2.55176 40.7503 3.03161V6.59429H39.4329V0.152545H41.5745L42.9019 3.97158C43.0045 4.27723 43.0839 4.58289 43.1303 4.89183H43.1601C43.2395 4.53687 43.3256 4.22465 43.4182 3.96172L44.7423 0.152545H46.8276V6.59429ZM49.7636 4.37583V6.59429H48.3039V0.152545H50.5945C52.2297 0.152545 53.0472 0.836158 53.0472 2.20667C53.0472 2.85413 52.8122 3.3767 52.3422 3.77767C51.8722 4.17535 51.2466 4.37583 50.4621 4.37583H49.7636ZM49.7636 1.2667V3.27482H50.3396C51.1175 3.27482 51.5081 2.9363 51.5081 2.25926C51.5081 1.59536 51.1175 1.2667 50.3396 1.2667H49.7636ZM59.439 6.59429H57.7608L56.7545 4.93784C56.6784 4.81295 56.6056 4.69792 56.536 4.59932C56.4665 4.50072 56.397 4.41856 56.3242 4.34625C56.2547 4.27723 56.1786 4.22136 56.1024 4.18521C56.0263 4.14577 55.9435 4.12933 55.8509 4.12933H55.457V6.59429H53.9972V0.152545H56.3143C57.8866 0.152545 58.6743 0.73756 58.6743 1.9043C58.6743 2.12779 58.6412 2.33485 58.5717 2.52547C58.5022 2.71609 58.4029 2.887 58.2771 3.04147C58.1514 3.19265 57.9991 3.32412 57.817 3.43586C57.6383 3.54761 57.4397 3.63306 57.2179 3.6955V3.71522C57.3139 3.7448 57.4066 3.7941 57.4993 3.85983C57.5886 3.92885 57.678 4.00773 57.7608 4.09647C57.8468 4.18849 57.9263 4.2838 58.0024 4.38569C58.0818 4.49086 58.1514 4.58946 58.2142 4.69134L59.439 6.59429ZM55.457 1.24041V3.03161H56.0925C56.407 3.03161 56.6585 2.94287 56.8472 2.76211C57.0392 2.58134 57.1385 2.35128 57.1385 2.08507C57.1385 1.51977 56.7975 1.24041 56.119 1.24041H55.457ZM65.7546 6.59429H64.1591L63.699 5.16133H61.3919L60.9351 6.59429H59.3496L61.713 0.152545H63.4442L65.7546 6.59429ZM63.3647 4.04717L62.6663 1.8813C62.6166 1.72025 62.5802 1.52634 62.5571 1.30286H62.5206C62.5074 1.49019 62.4677 1.67753 62.4081 1.86487L61.7031 4.04717H63.3647ZM72.143 0.00793457V6.59429H70.7164V1.60851C70.6402 1.67753 70.5476 1.73997 70.4383 1.80242C70.3324 1.86486 70.2166 1.92074 70.0974 1.97004C69.9749 2.01934 69.8524 2.05877 69.72 2.09493C69.591 2.12779 69.4619 2.15409 69.3361 2.17052V0.974196C69.7068 0.865738 70.0577 0.7277 70.3854 0.560084C70.7164 0.392467 71.011 0.208417 71.2791 0.00793457H72.143V0.00793457ZM76.3369 6.70603C74.7911 6.70603 74.0198 5.63131 74.0198 3.47859C74.0198 2.35786 74.2284 1.50663 74.6454 0.92161C75.0625 0.336595 75.6715 0.0440872 76.4627 0.0440872C77.972 0.0440872 78.7267 1.13853 78.7267 3.3274C78.7267 4.41856 78.5215 5.25335 78.1078 5.83508C77.6973 6.41681 77.1048 6.70603 76.3369 6.70603ZM76.3998 1.12867C75.7808 1.12867 75.4729 1.89773 75.4729 3.43915C75.4729 4.89511 75.7775 5.61817 76.3799 5.61817C76.9724 5.61817 77.2703 4.87211 77.2703 3.37342C77.2703 1.87472 76.979 1.12867 76.3998 1.12867ZM81.6661 6.70603C80.1236 6.70603 79.349 5.63131 79.349 3.47859C79.349 2.35786 79.5576 1.50663 79.9779 0.92161C80.395 0.336595 81.0008 0.0440872 81.7952 0.0440872C83.3013 0.0440872 84.0559 1.13853 84.0559 3.3274C84.0559 4.41856 83.8507 5.25335 83.4403 5.83508C83.0265 6.41681 82.4373 6.70603 81.6661 6.70603ZM81.729 1.12867C81.1133 1.12867 80.8022 1.89773 80.8022 3.43915C80.8022 4.89511 81.1067 5.61817 81.7124 5.61817C82.3049 5.61817 82.5995 4.87211 82.5995 3.37342C82.5995 1.87472 82.3082 1.12867 81.729 1.12867ZM86.3134 3.41943C85.8533 3.41943 85.4793 3.27153 85.1979 2.98231C84.9166 2.69309 84.7775 2.30198 84.7775 1.80899C84.7775 1.27328 84.9265 0.849305 85.2244 0.533791C85.5256 0.218277 85.9261 0.0605202 86.426 0.0605202C86.9092 0.0605202 87.2833 0.205131 87.5514 0.491065C87.8228 0.773713 87.9552 1.17468 87.9552 1.68739C87.9552 2.21653 87.8096 2.6405 87.5083 2.94944C87.2104 3.26167 86.8132 3.41943 86.3134 3.41943ZM86.3995 0.852591C85.9592 0.852591 85.7408 1.15825 85.7408 1.76627C85.7408 2.34142 85.9493 2.62736 86.3697 2.62736C86.7967 2.62736 87.0118 2.32828 87.0118 1.73011C87.0118 1.1451 86.8066 0.852591 86.3995 0.852591ZM91.0534 0.152545L86.8265 6.59429H85.7209L89.9379 0.152545H91.0534ZM90.355 6.68631C89.8949 6.68631 89.5209 6.53841 89.2395 6.24919C88.9582 5.95997 88.8158 5.56887 88.8158 5.07588C88.8158 4.54016 88.9681 4.11619 89.266 3.80067C89.5672 3.48516 89.9677 3.3274 90.4675 3.3274C90.9508 3.3274 91.3282 3.46873 91.5963 3.75137C91.8644 4.03074 92.0001 4.4317 92.0001 4.9477C92.0001 5.47684 91.8478 5.89753 91.5499 6.21304C91.252 6.52855 90.8515 6.68631 90.355 6.68631ZM90.4278 4.11947C89.9909 4.11947 89.7724 4.42184 89.7724 5.02986C89.7724 5.60502 89.9843 5.89424 90.408 5.89424C90.8383 5.89424 91.0534 5.59516 91.0534 4.997C91.0534 4.71764 90.9939 4.50072 90.8813 4.34954C90.7654 4.19507 90.6132 4.11947 90.4278 4.11947Z" fill="#666666"/>
<path d="M26.6759 20.3356V17.7425C27.1492 18.1369 27.6623 18.4327 28.2184 18.6299C28.7711 18.8271 29.3339 18.9257 29.8999 18.9257C30.2342 18.9257 30.5222 18.8961 30.7671 18.8369C31.0154 18.7745 31.2206 18.6956 31.3894 18.5872C31.5549 18.482 31.6774 18.3571 31.7601 18.2158C31.8429 18.0744 31.8826 17.92 31.8826 17.7491C31.8826 17.5223 31.8197 17.3218 31.6873 17.1443C31.5549 16.9636 31.3795 16.7992 31.1511 16.6481C30.926 16.4969 30.6579 16.349 30.3467 16.2109C30.0389 16.0696 29.7046 15.925 29.3438 15.7804C28.4302 15.4024 27.7483 14.9423 27.2982 14.3934C26.8513 13.8479 26.6262 13.1905 26.6262 12.4182C26.6262 11.8135 26.7454 11.2909 26.9936 10.8571C27.2386 10.4199 27.5729 10.065 27.9933 9.78234C28.417 9.50298 28.9035 9.29593 29.4596 9.16118C30.0124 9.02971 30.6016 8.96069 31.2206 8.96069C31.833 8.96069 32.3725 9.00013 32.8425 9.07244C33.3126 9.14474 33.7462 9.25977 34.1434 9.41096V11.8332C33.9481 11.6984 33.7362 11.5801 33.5045 11.4782C33.2728 11.3763 33.0345 11.2876 32.7896 11.2186C32.5446 11.1529 32.2997 11.1036 32.058 11.0707C31.8164 11.0411 31.588 11.0247 31.3695 11.0247C31.0683 11.0247 30.7969 11.051 30.552 11.1068C30.307 11.166 30.1018 11.2449 29.933 11.3468C29.7642 11.4487 29.6351 11.5703 29.5391 11.7149C29.4464 11.8595 29.4034 12.0205 29.4034 12.198C29.4034 12.3919 29.453 12.5661 29.5556 12.7206C29.6582 12.875 29.8072 13.0196 29.9992 13.161C30.1879 13.2957 30.4196 13.4305 30.691 13.5619C30.9624 13.6967 31.2736 13.8314 31.6145 13.9728C32.0845 14.1667 32.5016 14.3737 32.8756 14.5939C33.2464 14.8108 33.5674 15.0606 33.8322 15.3334C34.1004 15.6095 34.3023 15.925 34.4446 16.28C34.5869 16.6316 34.6564 17.0457 34.6564 17.5157C34.6564 18.1632 34.534 18.7055 34.2857 19.1492C34.0375 19.5896 33.7065 19.9478 33.2795 20.2173C32.8558 20.4901 32.3626 20.6873 31.7999 20.8056C31.2338 20.9272 30.638 20.9831 30.0124 20.9831C29.3703 20.9831 28.7612 20.9305 28.182 20.822C27.6027 20.7169 27.0996 20.5525 26.6759 20.3356ZM43.6069 20.7826H36.5829V9.15789H43.3354V11.2876H39.221V13.8775H43.0508V15.9973H39.221V18.6562H43.6069V20.7826ZM55.0928 20.0037C53.9475 20.6577 52.5275 20.9831 50.8294 20.9831C48.946 20.9831 47.4631 20.4671 46.3741 19.4318C45.2917 18.3965 44.7488 16.9734 44.7488 15.1559C44.7488 13.3319 45.3413 11.843 46.5297 10.6927C47.7113 9.53913 49.2936 8.96069 51.263 8.96069C52.5043 8.96069 53.5966 9.13488 54.5433 9.4734V11.9318C53.6397 11.4092 52.5374 11.1529 51.2299 11.1529C50.1343 11.1529 49.2439 11.5045 48.5554 12.2111C47.8669 12.9145 47.5227 13.8577 47.5227 15.0343C47.5227 16.2274 47.8338 17.1509 48.4495 17.8082C49.0685 18.4623 49.8993 18.7876 50.9519 18.7876C51.5841 18.7876 52.0839 18.6989 52.4514 18.5214V16.2504H50.1111V14.1568H55.0928V20.0037ZM66.913 15.7508C66.913 19.2379 65.2746 20.9831 62.0009 20.9831C58.8199 20.9831 57.2311 19.2806 57.2311 15.8724V9.15789H59.8758V15.902C59.8758 17.7819 60.6173 18.7219 62.0969 18.7219C63.55 18.7219 64.2749 17.8148 64.2749 15.9973V9.15789H66.913V15.7508ZM79.2828 20.7826H76.2507L74.4335 17.7918C74.2978 17.565 74.1654 17.3612 74.0396 17.1838C73.9138 17.0063 73.7881 16.8518 73.6623 16.7269C73.5332 16.5988 73.3975 16.5002 73.2584 16.4311C73.1194 16.3654 72.9705 16.3325 72.8083 16.3325H72.0966V20.7826H69.4585V9.15789H73.6391C76.4824 9.15789 77.9025 10.2129 77.9025 12.3196C77.9025 12.7239 77.8363 13.0985 77.7138 13.4403C77.588 13.7854 77.4126 14.0944 77.1842 14.3704C76.9558 14.6465 76.6777 14.8832 76.3567 15.0836C76.029 15.2841 75.6715 15.4386 75.271 15.5536V15.5865C75.4464 15.6424 75.6152 15.7278 75.7774 15.8494C75.9429 15.971 76.0985 16.1123 76.2507 16.2734C76.4063 16.4377 76.552 16.6119 76.691 16.7992C76.83 16.9833 76.9558 17.1673 77.0683 17.3448L79.2828 20.7826ZM72.0966 11.12V14.354H73.2386C73.8046 14.354 74.2614 14.193 74.6023 13.8676C74.9499 13.5389 75.1253 13.1281 75.1253 12.645C75.1253 11.6261 74.513 11.12 73.2882 11.12H72.0966ZM90.6694 20.7826H87.7963L86.9654 18.196H82.8014L81.9772 20.7826H79.1173L83.3806 9.15789H86.5053L90.6694 20.7826ZM86.3597 16.1879L85.1019 12.2802C85.0092 11.9877 84.943 11.6393 84.9033 11.235H84.8404C84.8139 11.5735 84.7444 11.9121 84.6385 12.2473L83.3641 16.1879H86.3597Z" fill="#96C122"/>
</svg>
