<svg width="16" height="13" viewBox="0 0 16 13" fill="none" xmlns="http://www.w3.org/2000/svg">
<path fill-rule="evenodd" clip-rule="evenodd" d="M15.5752 6.63542C15.5752 6.44391 15.5 6.26023 15.3661 6.12481C15.2321 5.98938 15.0504 5.9133 14.861 5.9133L2.43969 5.77788L6.93512 1.23429C7.00153 1.16716 7.0542 1.08745 7.09014 0.999726C7.12608 0.912004 7.14458 0.817983 7.14458 0.723033C7.14458 0.628083 7.12608 0.534063 7.09014 0.44634C7.0542 0.358618 7.00153 0.278911 6.93512 0.211771C6.86871 0.144631 6.78988 0.0913735 6.70311 0.0550377C6.61635 0.0187019 6.52335 0 6.42944 0C6.33552 0 6.24253 0.0187019 6.15576 0.0550377C6.069 0.0913735 5.99016 0.144631 5.92376 0.211771L0.209835 5.98874C0.14332 6.05582 0.0905481 6.1355 0.0545412 6.22324C0.0185342 6.31097 0 6.40502 0 6.5C0 6.59498 0.0185342 6.68903 0.0545412 6.77676C0.0905481 6.8645 0.14332 6.94418 0.209835 7.01126L5.92376 12.7882C5.99016 12.8554 6.069 12.9086 6.15576 12.945C6.24253 12.9813 6.33552 13 6.42944 13C6.52335 13 6.61635 12.9813 6.70311 12.945C6.78988 12.9086 6.86871 12.8554 6.93512 12.7882C7.00153 12.7211 7.0542 12.6414 7.09014 12.5537C7.12608 12.4659 7.14458 12.3719 7.14458 12.277C7.14458 12.182 7.12608 12.088 7.09014 12.0003C7.0542 11.9126 7.00153 11.8328 6.93512 11.7657L2.43969 7.22212L14.861 7.35755C15.0504 7.35755 15.2321 7.28147 15.3661 7.14604C15.5 7.01062 15.5752 6.82694 15.5752 6.63542Z" fill="white"/>
</svg>
