<svg width="19" height="22" viewBox="0 0 19 22" fill="none" xmlns="http://www.w3.org/2000/svg">
<path d="M1.75925 8.89785C1.79698 8.42772 2.01041 7.98904 2.35704 7.66919C2.70366 7.34934 3.15804 7.17178 3.62969 7.17188H14.9405C15.4121 7.17178 15.8665 7.34934 16.2131 7.66919C16.5597 7.98904 16.7732 8.42772 16.8109 8.89785L17.5641 18.2782C17.5849 18.5363 17.5519 18.7959 17.4674 19.0407C17.3828 19.2855 17.2485 19.5101 17.0729 19.7005C16.8973 19.8908 16.6842 20.0427 16.447 20.1466C16.2098 20.2505 15.9536 20.3042 15.6946 20.3043H2.87551C2.61654 20.3042 2.36039 20.2505 2.12319 20.1466C1.88599 20.0427 1.67287 19.8908 1.49726 19.7005C1.32164 19.5101 1.18734 19.2855 1.10279 19.0407C1.01825 18.7959 0.985296 18.5363 1.00601 18.2782L1.75925 8.89785V8.89785Z" stroke="white" stroke-width="2" stroke-linecap="round" stroke-linejoin="round"/>
<path d="M13.0355 9.98916V5.299C13.0355 4.30387 12.6402 3.34951 11.9365 2.64585C11.2329 1.94219 10.2785 1.54688 9.28338 1.54688C8.28825 1.54688 7.33388 1.94219 6.63022 2.64585C5.92656 3.34951 5.53125 4.30387 5.53125 5.299V9.98916" stroke="white" stroke-width="2" stroke-linecap="round" stroke-linejoin="round"/>
</svg>
