<svg width="18" height="18" viewBox="0 0 18 18" fill="none" xmlns="http://www.w3.org/2000/svg">
<path d="M15.3 1.8H14.4V0.9C14.4 0.661305 14.3052 0.432387 14.1364 0.263604C13.9676 0.0948211 13.7387 0 13.5 0C13.2613 0 13.0324 0.0948211 12.8636 0.263604C12.6948 0.432387 12.6 0.661305 12.6 0.9V1.8H5.4V0.9C5.4 0.661305 5.30518 0.432387 5.1364 0.263604C4.96761 0.0948211 4.73869 0 4.5 0C4.2613 0 4.03239 0.0948211 3.8636 0.263604C3.69482 0.432387 3.6 0.661305 3.6 0.9V1.8H2.7C1.98392 1.8 1.29716 2.08446 0.790812 2.59081C0.284464 3.09716 0 3.78392 0 4.5V15.3C0 16.0161 0.284464 16.7028 0.790812 17.2092C1.29716 17.7155 1.98392 18 2.7 18H15.3C16.0161 18 16.7028 17.7155 17.2092 17.2092C17.7155 16.7028 18 16.0161 18 15.3V4.5C18 3.78392 17.7155 3.09716 17.2092 2.59081C16.7028 2.08446 16.0161 1.8 15.3 1.8ZM16.2 15.3C16.2 15.5387 16.1052 15.7676 15.9364 15.9364C15.7676 16.1052 15.5387 16.2 15.3 16.2H2.7C2.46131 16.2 2.23239 16.1052 2.0636 15.9364C1.89482 15.7676 1.8 15.5387 1.8 15.3V7.2H16.2V15.3ZM16.2 5.4H1.8V4.5C1.8 4.2613 1.89482 4.03239 2.0636 3.8636C2.23239 3.69482 2.46131 3.6 2.7 3.6H15.3C15.5387 3.6 15.7676 3.69482 15.9364 3.8636C16.1052 4.03239 16.2 4.2613 16.2 4.5V5.4Z" fill="white"/>
</svg>
