<svg width="20" height="23" viewBox="0 0 20 23" fill="none" xmlns="http://www.w3.org/2000/svg">
<path d="M17 7.26562H3C1.89543 7.26562 1 8.16106 1 9.26562V19.2656C1 20.3702 1.89543 21.2656 3 21.2656H17C18.1046 21.2656 19 20.3702 19 19.2656V9.26562C19 8.16106 18.1046 7.26562 17 7.26562Z" stroke="white" stroke-width="2" stroke-linecap="round" stroke-linejoin="round"/>
<path d="M10 4.26563C10 3.67228 9.82405 3.09226 9.49441 2.59892C9.16477 2.10557 8.69623 1.72105 8.14805 1.49399C7.59987 1.26692 6.99667 1.20751 6.41473 1.32327C5.83279 1.43903 5.29824 1.72475 4.87868 2.14431C4.45912 2.56386 4.1734 3.09841 4.05765 3.68036C3.94189 4.2623 4.0013 4.8655 4.22836 5.41368C4.45543 5.96186 4.83994 6.43039 5.33329 6.76004C5.82664 7.08968 6.40666 7.26563 7 7.26563" stroke="white" stroke-width="2" stroke-linecap="round" stroke-linejoin="round"/>
<path d="M13 7.26563C13.5933 7.26563 14.1734 7.08968 14.6667 6.76004C15.1601 6.43039 15.5446 5.96186 15.7716 5.41368C15.9987 4.8655 16.0581 4.2623 15.9424 3.68036C15.8266 3.09841 15.5409 2.56386 15.1213 2.14431C14.7018 1.72475 14.1672 1.43903 13.5853 1.32327C13.0033 1.20751 12.4001 1.26692 11.8519 1.49399C11.3038 1.72105 10.8352 2.10557 10.5056 2.59892C10.1759 3.09226 10 3.67228 10 4.26563" stroke="white" stroke-width="2" stroke-linecap="round" stroke-linejoin="round"/>
<path d="M10 4.26562V21.2656" stroke="white" stroke-width="2" stroke-linecap="round" stroke-linejoin="round"/>
<path d="M19 14.2656H1" stroke="white" stroke-width="2" stroke-linecap="round" stroke-linejoin="round"/>
</svg>
