<svg width="19" height="21" viewBox="0 0 19 21" fill="none" xmlns="http://www.w3.org/2000/svg">
<path d="M16.6552 11.2864V9.41379H15.2069V11.5862C15.2069 11.7782 15.2833 11.9624 15.4191 12.0982L17.3793 14.0584V15.2069H1.44828V14.0584L3.40852 12.0982C3.54433 11.9624 3.62065 11.7782 3.62069 11.5862V8.68966C3.61867 7.67209 3.88522 6.67202 4.39341 5.79044C4.9016 4.90886 5.63343 4.177 6.51499 3.66878C7.39656 3.16056 8.39662 2.89397 9.41419 2.89596C10.4318 2.89794 11.4308 3.16842 12.3103 3.68007V2.06162C11.621 1.75641 10.8879 1.56188 10.1379 1.48521V0H8.68966V1.48448C6.90435 1.66619 5.24983 2.50343 4.04603 3.8343C2.84223 5.16517 2.17466 6.89512 2.17241 8.68966V11.2864L0.212172 13.2467C0.0763608 13.3824 4.10133e-05 13.5666 0 13.7586V15.931C0 16.1231 0.0762929 16.3073 0.212095 16.4431C0.347897 16.5789 0.532085 16.6552 0.724138 16.6552H5.7931V17.3793C5.7931 18.3396 6.17457 19.2605 6.85358 19.9395C7.53259 20.6185 8.45353 21 9.41379 21C10.3741 21 11.295 20.6185 11.974 19.9395C12.653 19.2605 13.0345 18.3396 13.0345 17.3793V16.6552H18.1034C18.2955 16.6552 18.4797 16.5789 18.6155 16.4431C18.7513 16.3073 18.8276 16.1231 18.8276 15.931V13.7586C18.8275 13.5666 18.7512 13.3824 18.6154 13.2467L16.6552 11.2864ZM11.5862 17.3793C11.5862 17.9555 11.3573 18.508 10.9499 18.9154C10.5425 19.3228 9.98995 19.5517 9.41379 19.5517C8.83763 19.5517 8.28507 19.3228 7.87766 18.9154C7.47026 18.508 7.24138 17.9555 7.24138 17.3793V16.6552H11.5862V17.3793Z" fill="white"/>
</svg>
