<svg width="18" height="19" viewBox="0 0 18 19" fill="none" xmlns="http://www.w3.org/2000/svg">
<path d="M6.375 9.17188C6.67337 9.17188 6.95952 9.05335 7.1705 8.84237C7.38147 8.63139 7.5 8.34524 7.5 8.04688C7.5 7.74851 7.38147 7.46236 7.1705 7.25138C6.95952 7.0404 6.67337 6.92188 6.375 6.92188C6.07663 6.92188 5.79048 7.0404 5.5795 7.25138C5.36853 7.46236 5.25 7.74851 5.25 8.04688C5.25 8.34524 5.36853 8.63139 5.5795 8.84237C5.79048 9.05335 6.07663 9.17188 6.375 9.17188ZM6.204 12.0474C6.1386 11.9729 6.0591 11.9122 5.9701 11.8687C5.88109 11.8252 5.78435 11.7997 5.68545 11.7938C5.58655 11.7879 5.48746 11.8016 5.3939 11.8342C5.30033 11.8668 5.21415 11.9176 5.14034 11.9837C5.06652 12.0498 5.00653 12.1298 4.96384 12.2192C4.92114 12.3086 4.89657 12.4056 4.89157 12.5045C4.88656 12.6035 4.90121 12.7025 4.93467 12.7957C4.96813 12.889 5.01973 12.9747 5.0865 13.0479C5.57865 13.5988 6.18174 14.0395 6.85621 14.3409C7.53067 14.6423 8.26125 14.7977 9 14.7969C9.73875 14.7977 10.4693 14.6423 11.1438 14.3409C11.8183 14.0395 12.4214 13.5988 12.9135 13.0479C13.044 12.8994 13.1106 12.7053 13.0988 12.508C13.0869 12.3106 12.9977 12.1259 12.8504 11.994C12.7031 11.8622 12.5097 11.7938 12.3122 11.8038C12.1148 11.8138 11.9292 11.9013 11.796 12.0474C11.4446 12.4413 11.0138 12.7562 10.5318 12.9716C10.0499 13.187 9.52785 13.2978 9 13.2969C7.89 13.2969 6.8925 12.8154 6.204 12.0474ZM12.75 8.04688C12.75 8.34524 12.6315 8.63139 12.4205 8.84237C12.2095 9.05335 11.9234 9.17188 11.625 9.17188C11.3266 9.17188 11.0405 9.05335 10.8295 8.84237C10.6185 8.63139 10.5 8.34524 10.5 8.04688C10.5 7.74851 10.6185 7.46236 10.8295 7.25138C11.0405 7.0404 11.3266 6.92188 11.625 6.92188C11.9234 6.92188 12.2095 7.0404 12.4205 7.25138C12.6315 7.46236 12.75 7.74851 12.75 8.04688ZM18 9.54688C18 8.36498 17.7672 7.19465 17.3149 6.10272C16.8626 5.01079 16.1997 4.01864 15.364 3.18291C14.5282 2.34719 13.5361 1.68425 12.4442 1.23196C11.3522 0.779667 10.1819 0.546875 9 0.546875C7.8181 0.546875 6.64778 0.779667 5.55585 1.23196C4.46392 1.68425 3.47177 2.34719 2.63604 3.18291C1.80031 4.01864 1.13738 5.01079 0.685084 6.10272C0.232792 7.19465 -1.76116e-08 8.36498 0 9.54688C3.55683e-08 11.9338 0.948211 14.223 2.63604 15.9108C4.32387 17.5987 6.61305 18.5469 9 18.5469C11.3869 18.5469 13.6761 17.5987 15.364 15.9108C17.0518 14.223 18 11.9338 18 9.54688ZM1.5 9.54688C1.5 7.55775 2.29018 5.6501 3.6967 4.24357C5.10322 2.83705 7.01088 2.04688 9 2.04688C10.9891 2.04688 12.8968 2.83705 14.3033 4.24357C15.7098 5.6501 16.5 7.55775 16.5 9.54688C16.5 11.536 15.7098 13.4437 14.3033 14.8502C12.8968 16.2567 10.9891 17.0469 9 17.0469C7.01088 17.0469 5.10322 16.2567 3.6967 14.8502C2.29018 13.4437 1.5 11.536 1.5 9.54688Z" fill="white"/>
</svg>
